<svg xmlns="http://www.w3.org/2000/svg" width="125.396" height="152.061" viewBox="0 0 125.396 152.061">
  <g id="그룹_486" data-name="그룹 486" transform="translate(-242.604 -145.602)">
    <path id="패스_1055" data-name="패스 1055" d="M188.636,802.533c1.477.738,4.791.926,6.423.926,5.888,0,12.425-4.236,16.651-7.933,1.441-1.261,6.023-7.012,6.023-7.012s-.26,5.914-.4,6.911c-.452,3.167-1.339,10.484-2.237,14.974-.975,4.876-5.063,16.02-6.379,20.846-.62,2.273-1.951,5.777-2.407,8.059-.566,2.827-1.34,5.563-2.028,8.312l0,.011h25.4a13.242,13.242,0,0,1,.7-1.714c.684-1.254,1.157-2.534,1.721-3.85,1.382-3.224,2.756-6.476,3.941-9.791.6-1.675,1.356-3.395,1.791-5.135.193-.769.616,14.451,1.045,19.592.019.224.056.537.1.9h43.108c-.265-2.229-.543-4.536-.585-4.761-.037-.2-.335-1.622-.335-1.622.437-.109,1.262,1.158,3.039,1.751s6.387.307,8.668-1.291a18.01,18.01,0,0,0,4.234-4.144c3.385-5.575,5.19-12.658,6.271-18.929.285-1.652.626-3.857.99-5.492.115-.518-.072-1.778.032-2.3.071-.353-9.28,7.108-10.572,4.954-.986-1.642-.882-4.268-.717-6.089.233-2.558,1.257-5.028,1.791-7.522,1.23-5.74,3.566-11.38,5.612-16.835,1.056-2.816,3-3.6,3.487-6.539a36.423,36.423,0,0,0-.749-10.529c-.7-2.812-3.52-4.893-5.9-6.255-2.534-1.448-5.34-2.429-7.929-3.7a89.112,89.112,0,0,1-7.841-4.827c-2.379-1.521-4.324-4.732-5.885-6.293a25.231,25.231,0,0,0-2.357-2A7.781,7.781,0,0,0,271.361,742c-.313-.251-2.132-1.773-2.132-1.773a3.988,3.988,0,0,0-1.054,1.594c-.172,1.065.807,2.689.7,3.769a27.922,27.922,0,0,1-2.149,7.761c-2.177,5.225-4.271,10.454-6.806,15.522a128.358,128.358,0,0,1-6.925,11.224c-2.66,4.18-5.938,8.364-7.88,12.895-.5,1.177-1.386-24.484-.836-31.641.182-2.364-.262-4.808,0-7.164a59.861,59.861,0,0,1,3.224-14.328,12.154,12.154,0,0,0-.027-2.063,4.313,4.313,0,0,0-1.268.974A34.266,34.266,0,0,0,244.02,742a5.325,5.325,0,0,0-1.645.426,57.26,57.26,0,0,1-5.127,2.6,28.973,28.973,0,0,1-6.918,1.553c-1.984.33-5.786.191-7.786.662-2.716.639-4.943.743-7.363,3.508-2.744,3.136-5.772,8.716-7.648,12.466-.739,1.478-2.161,3.344-2.9,4.817-.089.178-1.462,1.659-1.462,1.659s.268-2.615.268-3.33c0-2.489,1.006-6.607,1.287-9.06.178-1.555.446-3.688-.071-4.033-.636-.424-3.278,3.309-3.843,3.422a11.272,11.272,0,0,1-3.582.119,30.916,30.916,0,0,1-6.925-2.507c-.654-.281-.826-2.124-1.5-1.668-1.567,1.064-1.336,1.572-1.683,2.611-.39,1.17.1,2.963-.266,4.658-.494,2.3-1.161,6.2-1.4,7.857a99.492,99.492,0,0,0-1.2,13.049c-.021,1.523-.08,4.615-.14,5.814s-.177,6.262.04,8.437C184.544,798.844,185.027,800.729,188.636,802.533Z" transform="translate(58.802 -549.964)" fill="#a0cef5" fill-rule="evenodd"/>
    <path id="패스_1056" data-name="패스 1056" d="M279.967,592.018s.653-1.973.977-2.729c.848-1.979,2.847-3.358,4.163-5.13,1.009-1.359,2.661-6.278,2.661-6.278a2.786,2.786,0,0,0,2.37-.5c.838-.81,2.162-2.567,1.918-3.786-.1-.486-.967-.983-.967-.983s.142-1.449-.332-1.783c-.934-.659-4.231-2.322-4.85-2.786-.918-.688-3.412-2.029-3.412-2.029a7.434,7.434,0,0,0-1.537-1.409c-.65-.27-1.745.49-2.659,1.043a9.225,9.225,0,0,0-2.522,1.894,5.649,5.649,0,0,0-.822,2.524c-.275,1.194-.463,2.165-.889,4.166a54.768,54.768,0,0,1-2.425,8.406c-.952,2.346-2.009,3.777-2.232,6.443-.036.439-.1,1.166-.1,1.166s1.016,2.4,2.374,3.092c1.827.93,4.273.188,5.693-.168A19.862,19.862,0,0,0,279.967,592.018Z" transform="translate(-17.879 -394.171)" fill="#ffedde" fill-rule="evenodd"/>
    <path id="패스_1057" data-name="패스 1057" d="M1217.38,1160.66a17.512,17.512,0,0,0,.118-3.65,16.038,16.038,0,0,0-1.027-3.753c-.306-.918-.66-2.088-.955-2.855a30.237,30.237,0,0,1,0-4.871s-1.429.069-1.7-.729a12.371,12.371,0,0,1-.6-3.218,3.008,3.008,0,0,1,2-2.811s.446-2.385,1.216-2.745a7.679,7.679,0,0,1,3.054-.237s.239-1.7,1.232-2.057a9.179,9.179,0,0,1,2.78-.153,2.685,2.685,0,0,1,2.789-1.566,8.24,8.24,0,0,1,3.841,1.695c1.285.963,3.326,1.5,3.948,3.154,1,2.661-.134,3.691-1.094,6.2a58.522,58.522,0,0,0-2.36,6.759,73.17,73.17,0,0,0-1.079,10.38s-3.939,4.3-5.521,4.694c-.932.233-3.785,1.12-3.785,1.12Z" transform="translate(-866.686 -904.45)" fill="#ffedde" fill-rule="evenodd"/>
    <path id="패스_1058" data-name="패스 1058" d="M766.685,490.144c-.7.363-.333-4.254-.258-4.99.346-3.374,1.172-7.408-.42-10.591-.913-1.826-2.709-3.409-3.356-5.348a16.485,16.485,0,0,0-1.2-2.4,69.013,69.013,0,0,0-.54-7.413c-.393-1.841-.492-2.9-1.3-3.977-.467-.623-1.574-.928-2.558-1.752A6.1,6.1,0,0,1,755.3,447.6a2.552,2.552,0,0,1,1.359-1.237s1.119-5.69,2.845-7.663c1.1-1.26,2.9-4.089,4.066-5.257,3.206-3.206,6.976-4.037,11.558-4.5,2.91-.291,5.78,1.756,7.55,3.88.951,1.141,2.18,2.091,3.146,3.251,2.183,2.619,2.331,11.276,2.331,11.276a2.929,2.929,0,0,1,.842,1.238,9.564,9.564,0,0,1-.646,3.347,5.767,5.767,0,0,1-2.387,2.709,46.179,46.179,0,0,1-1.9,5.262,19.713,19.713,0,0,1-2.247,3.734,21.722,21.722,0,0,0-.175,3.145,28.464,28.464,0,0,0,.329,3.4s-5.875,7.4-8.413,10.662c-1.931,2.482-3.485,5.372-5.663,7.55C767.46,488.839,767.287,489.832,766.685,490.144Z" transform="translate(-454.706 -272.21)" fill="#ffedde" fill-rule="evenodd"/>
    <path id="패스_1059" data-name="패스 1059" d="M906.4,709.628c-.049-.9-1.682-.943-2.523-1.045a24.583,24.583,0,0,0-5.378.28c-.872.243-.934,1.107-.688,2.09a5.722,5.722,0,0,0,1.707,2.293,4.058,4.058,0,0,0,5.091-.015A4.684,4.684,0,0,0,906.4,709.628Z" transform="translate(-582.945 -523.658)" fill="#fff" fill-rule="evenodd"/>
    <path id="패스_1060" data-name="패스 1060" d="M774.269,755.069s-.517-.013-.9.825c-.568,1.247-1.5,3.533-1.5,3.533s-.692,3.113-.83,4.543-.451,5.465-.646,7.217c-.281,2.522-.038,5.62-.187,8.154-.229,3.89-.165,9-.33,11.977S769.79,798.4,769.79,802c0,3.778-.168,14.2-.168,14.2s1.761-4.612,2.655-6.736a34.3,34.3,0,0,1,4.333-7.77c2.482-3.192,4.653-7.018,6.577-9.8,2.336-3.383,4.409-6.741,6.42-10.181,1.731-2.961,3.493-7.131,5.025-10.194,1.255-2.511,2.513-9.108,2.513-9.108l-.968-2.491s-1.066-1.937-1.43-1.937a14.2,14.2,0,0,0,.015,2.534c.06,1.106.192,2.493.192,2.493a23.969,23.969,0,0,1-2.583,2.929c-2.669,2.224-6.85,2.514-8.693,5.465-1.237,1.979-1.545,4.727-1.752,5.35-.455,1.362-1.466,5.681-1.883,5.89-.34.17-.338-.407-.364-.509a14.827,14.827,0,0,1-.313-2.867c0-3.234,1.361-5.212,1.361-8.463a9.616,9.616,0,0,0-.3-2.605,19.686,19.686,0,0,0-2.882-3.666,13.784,13.784,0,0,1-2.306-3.159,7.92,7.92,0,0,1-.968-4.2Z" transform="translate(-467.782 -565.498)" fill="#fff" fill-rule="evenodd"/>
    <path id="패스_1061" data-name="패스 1061" d="M645.071,1623.194c-.151-1.144-.282-2.144-.306-2.457-.26-3.391-.612-6.593-.612-10,0-2.376.044-4.669.044-7.045a30.267,30.267,0,0,0-.11-3.435c-.123.138-2.982,7.557-4.36,10.707-1.259,2.877-2.226,6.381-3.013,8.787-.371,1.134-.828,2.283-1.128,3.442Z" transform="translate(-347.251 -1325.53)" fill="#fff" fill-rule="evenodd"/>
    <path id="패스_1062" data-name="패스 1062" d="M235.848,815.963s.685-3.153.849-4.16a27.79,27.79,0,0,1,.546-2.8c.169-.594.659-2.429,1.3-2.716.356-.159.46.618.679.837a33.048,33.048,0,0,1,2.326,3.356,5.228,5.228,0,0,1,1.7-1.2c.686-.137,3.068.307,4.8.347a5.2,5.2,0,0,0,1.821-.364l.9-2.428a2.183,2.183,0,0,1,.9,1.426,29.158,29.158,0,0,1-.781,4.125c-.249,1.079-1,5.06-1,5.06a10.232,10.232,0,0,1-2.822,1.424,11.6,11.6,0,0,1-5.178.369,16.238,16.238,0,0,1-2.505-.835,10.124,10.124,0,0,1-2.871-1.723A7.619,7.619,0,0,1,235.848,815.963Z" transform="translate(12.213 -611.536)" fill="#fff" fill-rule="evenodd"/>
    <path id="패스_1063" data-name="패스 1063" d="M1224.39,1395.808s1.445-7.007,1.885-8.075c.277-.674.94-1.787,1.111-1.587.589.687.04,3.155.04,3.155s1.789,1.968,2.46,2.639a7.826,7.826,0,0,1,.436,2.083s1.917-.915,2.441-1.17a37.953,37.953,0,0,0,6.17-3.571c.4-.32.865-1.683,1.487-1.807.219-.044-.14.634-.151.678-.093.37-.16,1.523-.245,1.9-.246,1.108-1.032,5.218-1.032,5.218a7.775,7.775,0,0,0-.734.912c-.575.774-2.139,1.905-3.128,3.138a14.385,14.385,0,0,0-1.316,1.962,6.916,6.916,0,0,1-3.194,1.051,5.433,5.433,0,0,1-4.8-3.452C1225.6,1398.367,1224.39,1395.808,1224.39,1395.808Z" transform="translate(-876.731 -1132.971)" fill="#fff" fill-rule="evenodd"/>
    <path id="패스_1064" data-name="패스 1064" d="M752.014,349.605s-1.515-5.446-1.763-7.2c-.421-2.97,0-3.867.121-6.659.216-5.2,2.073-8.5,6.569-10.748,1.429-.714,2.881-.116,4.334-.55,2.114-.631,3.487-2.5,5.531-2.953,1.858-.412,4.382.535,6.373,1.033a17.284,17.284,0,0,1,4.253,2.287,29.268,29.268,0,0,1,3.93,2.9,17.27,17.27,0,0,1,3.9,5.191c1.543,4.114.571,7.929-.322,12.17-.246,1.167-1.32,5.572-1.32,5.572l-1.2.059s-.095-2.742-.117-2.992c-.154-1.692-.382-5.1-.382-5.1s-3.7-.925-4.9-1.928c-1.7-1.417-2.621-4.148-4.369-5.547-1.289-1.032-3.572.1-5.832.065a24.888,24.888,0,0,0-3.62-.123c-4.14.69-4.046,5.369-4.784,8.616-.576,2.536-1.239,5.1-2.926,6.066C754.019,350.6,752.014,349.605,752.014,349.605Z" transform="translate(-450.199 -175.514)" fill="#e29b80" fill-rule="evenodd"/>
    <g id="_迹_1_x5F_2" data-name="卵迹_1_x5F_2" transform="translate(242.604 145.602)">
      <g id="그룹_311" data-name="그룹 311" transform="translate(105.705 92.419)">
        <path id="패스_1065" data-name="패스 1065" d="M1233.318,1254.479a.3.3,0,0,1-.3-.3c0-.672.025-1.218.047-1.707a10.143,10.143,0,0,0-.34-3.707,17.573,17.573,0,0,0-.738-2.107,12.383,12.383,0,0,1-.967-3.387,16.381,16.381,0,0,1-.01-2.981,14.067,14.067,0,0,0-.16-3.971.3.3,0,0,1,.581-.128,14.533,14.533,0,0,1,.173,4.134,15.745,15.745,0,0,0,.007,2.874,11.923,11.923,0,0,0,.929,3.238,18.073,18.073,0,0,1,.761,2.175,10.752,10.752,0,0,1,.359,3.888c-.022.481-.047,1.018-.047,1.68A.3.3,0,0,1,1233.318,1254.479Z" transform="translate(-1230.846 -1235.96)" fill="#383b54"/>
      </g>
      <g id="그룹_312" data-name="그룹 312" transform="translate(103.592 88.466)">
        <path id="패스_1066" data-name="패스 1066" d="M1211.371,1203.863h-.015c-.889-.043-1.211-1.534-1.375-2.651-.243-1.621-.236-3.357,1.584-4.368.578-.319,2.964.1,3.683.232.263.049.508.091.735.129a4.048,4.048,0,0,1,2.11.717,2.357,2.357,0,0,1,.576,1.164,3.823,3.823,0,0,0,.62,1.375.3.3,0,1,1-.467.368,4.356,4.356,0,0,1-.724-1.578,1.952,1.952,0,0,0-.4-.888,3.667,3.667,0,0,0-1.812-.573c-.231-.039-.479-.081-.747-.132a10.511,10.511,0,0,0-3.284-.3c-1.414.785-1.54,2.049-1.293,3.7.306,2.076.741,2.2.825,2.2a.3.3,0,0,1-.014.594Z" transform="translate(-1209.87 -1196.726)" fill="#383b54"/>
      </g>
      <g id="그룹_313" data-name="그룹 313" transform="translate(105.574 85.395)">
        <path id="패스_1067" data-name="패스 1067" d="M1240.938,1170.78a.3.3,0,0,1-.294-.261c-.266-2.15-1.646-2.422-3.243-2.737-.314-.061-.629-.124-.936-.2-.235-.059-.485-.127-.744-.2-1.841-.5-4.134-1.134-5.222.589a2.419,2.419,0,0,0-.292.978c-.02.132-.041.267-.069.405a.3.3,0,1,1-.583-.117c.026-.129.045-.255.064-.378a2.948,2.948,0,0,1,.377-1.2c1.322-2.095,3.958-1.372,5.882-.845.255.069.5.137.731.194.3.075.6.135.907.194,1.593.314,3.4.671,3.718,3.247a.3.3,0,0,1-.258.332Z" transform="translate(-1229.549 -1166.249)" fill="#383b54"/>
      </g>
      <g id="그룹_314" data-name="그룹 314" transform="translate(109.862 83.176)">
        <path id="패스_1068" data-name="패스 1068" d="M1283.777,1148.293a.3.3,0,0,1-.287-.222c-.388-1.484-2-1.8-3.415-2.08-.165-.032-.327-.064-.483-.1-.494-.1-1.023-.268-1.584-.441-2.2-.681-4.475-1.384-5.324,1.165a.3.3,0,1,1-.564-.188c1.034-3.1,3.823-2.239,6.064-1.545.547.169,1.064.329,1.531.427.154.032.313.064.475.1,1.512.3,3.394.668,3.875,2.513a.3.3,0,0,1-.212.362A.28.28,0,0,1,1283.777,1148.293Z" transform="translate(-1272.105 -1144.222)" fill="#383b54"/>
      </g>
      <g id="그룹_315" data-name="그룹 315" transform="translate(113.908 81.684)">
        <path id="패스_1069" data-name="패스 1069" d="M1318.529,1157.894h-.013a.3.3,0,0,1-.285-.31c.015-.354.387-8.743,2.1-13.462.5-1.388,1.083-2.772,1.642-4.11l.354-.846a6.293,6.293,0,0,0,.758-3.654c-.365-1.7-1.755-2.477-3.226-3.3-.326-.182-.651-.364-.965-.556-.239-.146-.473-.3-.705-.455a6.553,6.553,0,0,0-2.245-1.111c-1.03-.214-2.707-.1-3.1,1.085a.3.3,0,1,1-.564-.188c.518-1.556,2.55-1.739,3.787-1.479a7.112,7.112,0,0,1,2.453,1.2c.226.15.454.3.687.443.308.188.626.366.945.544,1.522.851,3.1,1.731,3.518,3.694a6.823,6.823,0,0,1-.792,4.008l-.353.845c-.556,1.332-1.132,2.71-1.632,4.084-1.684,4.633-2.063,13.2-2.066,13.285A.3.3,0,0,1,1318.529,1157.894Z" transform="translate(-1312.263 -1129.412)" fill="#383b54"/>
      </g>
      <g id="그룹_316" data-name="그룹 316" transform="translate(19.141 35.597)">
        <path id="패스_1070" data-name="패스 1070" d="M371.959,688.827a.3.3,0,0,1-.284-.383,18.563,18.563,0,0,1,2.068-4.492,11.467,11.467,0,0,1,1.5-1.648c.317-.305.645-.621.941-.952a11.254,11.254,0,0,0,2.163-3.928c.047-.151.1-.32.15-.5.5-1.678,1.328-4.487,3.112-4.937a.3.3,0,1,1,.145.576c-1.455.367-2.226,2.973-2.687,4.529-.054.183-.1.354-.152.507a11.713,11.713,0,0,1-2.288,4.148c-.311.348-.647.671-.972.984a10.855,10.855,0,0,0-1.427,1.561,18.326,18.326,0,0,0-1.986,4.323A.3.3,0,0,1,371.959,688.827Z" transform="translate(-371.662 -671.979)" fill="#383b54"/>
      </g>
      <g id="그룹_317" data-name="그룹 317" transform="translate(23.946 30.747)">
        <path id="패스_1071" data-name="패스 1071" d="M424,631.489a1.118,1.118,0,0,1-.31-.043.3.3,0,1,1,.165-.571,1.075,1.075,0,0,0,.841-.274,6.006,6.006,0,0,0,2.02-3.323c.009-.48-.756-1.051-2-1.492a5.054,5.054,0,0,1-1.168-.683c-.561-.4-1.092-.772-1.572-.64a2.5,2.5,0,0,0-1.1.814,3.365,3.365,0,0,1-1.108.877.3.3,0,0,1-.232-.547,2.871,2.871,0,0,0,.907-.738,2.994,2.994,0,0,1,1.378-.978,2.545,2.545,0,0,1,2.074.728,4.654,4.654,0,0,0,1.023.608c1.1.391,2.413,1.067,2.394,2.063a6.533,6.533,0,0,1-2.262,3.79A1.8,1.8,0,0,1,424,631.489Z" transform="translate(-419.356 -623.839)" fill="#383b54"/>
      </g>
      <g id="그룹_318" data-name="그룹 318" transform="translate(20.947 27.888)">
        <path id="패스_1072" data-name="패스 1072" d="M399.26,600.457l-.037,0a.3.3,0,0,1-.258-.332c.152-1.215-.781-1.715-2.222-2.338l-.26-.113a8.445,8.445,0,0,1-1.018-.566,5.607,5.607,0,0,0-2.8-1.045c-.354-.021-.782.5-1.2,1.006a4.771,4.771,0,0,1-1.452,1.35.3.3,0,0,1-.26-.535,4.383,4.383,0,0,0,1.252-1.193c.531-.647,1.038-1.261,1.688-1.222a6.169,6.169,0,0,1,3.076,1.132,8.042,8.042,0,0,0,.945.528l.257.111c1.245.539,2.795,1.209,2.576,2.957A.3.3,0,0,1,399.26,600.457Z" transform="translate(-389.592 -595.466)" fill="#383b54"/>
      </g>
      <g id="그룹_319" data-name="그룹 319" transform="translate(17.677 25.851)">
        <path id="패스_1073" data-name="패스 1073" d="M357.429,578.632a.3.3,0,0,1-.188-.528,10.506,10.506,0,0,0,1.075-1.094,7.048,7.048,0,0,1,1.863-1.661c.547-.27,1.294.072,1.788.3l.15.068a25.271,25.271,0,0,1,3.526,2.14.3.3,0,0,1-.347.482,25.266,25.266,0,0,0-3.418-2.078l-.158-.071c-.344-.157-.987-.45-1.277-.306a6.687,6.687,0,0,0-1.684,1.526,10.891,10.891,0,0,1-1.142,1.158A.3.3,0,0,1,357.429,578.632Z" transform="translate(-357.132 -575.25)" fill="#383b54"/>
      </g>
      <g id="그룹_320" data-name="그룹 320" transform="translate(8.611 24.552)">
        <path id="패스_1074" data-name="패스 1074" d="M267.443,588.01h-.028a.3.3,0,0,1-.269-.323,17.747,17.747,0,0,1,1.755-5.622c.4-.9.809-1.827,1.138-2.8.847-2.492,2.778-11.162,3.042-12.612.233-1.284,1.251-1.969,2.66-2.917.394-.265.821-.553,1.273-.882a2.3,2.3,0,0,1,1.829-.459,4.14,4.14,0,0,1,2.31,1.732.3.3,0,0,1-.5.321,3.6,3.6,0,0,0-1.921-1.469,1.7,1.7,0,0,0-1.368.356c-.458.334-.891.625-1.291.894-1.336.9-2.219,1.494-2.408,2.53-.265,1.458-2.21,10.183-3.064,12.7-.338,1-.754,1.936-1.158,2.846a17.031,17.031,0,0,0-1.706,5.436A.3.3,0,0,1,267.443,588.01Z" transform="translate(-267.145 -562.359)" fill="#383b54"/>
      </g>
      <g id="그룹_321" data-name="그룹 321" transform="translate(107.145 107.318)">
        <path id="패스_1075" data-name="패스 1075" d="M1248.768,1392.3a.3.3,0,0,1-.276-.408c.455-1.131-.49-2.106-1.49-3.14-1.019-1.052-2.073-2.14-1.825-3.545a3.5,3.5,0,0,1,.395-1.009l.1-.195a.3.3,0,1,1,.532.266l-.1.2a3.012,3.012,0,0,0-.338.839c-.195,1.106.709,2.04,1.667,3.028,1.089,1.124,2.215,2.286,1.615,3.775A.3.3,0,0,1,1248.768,1392.3Z" transform="translate(-1245.14 -1383.84)" fill="#383b54"/>
      </g>
      <g id="그룹_322" data-name="그룹 322" transform="translate(107.368 107.599)">
        <path id="패스_1076" data-name="패스 1076" d="M1247.647,1400.837a.308.308,0,0,1-.056-.005.3.3,0,0,1-.237-.347c.014-.076.351-1.863.566-2.561a7.062,7.062,0,0,1,1.127-2.344c.739-.924,2.491-1.728,4.518-2.659l.822-.379c3.247-1.509,6.374-3.18,5.872-5.553a.3.3,0,0,1,.229-.353.3.3,0,0,1,.352.229c.593,2.8-2.74,4.606-6.2,6.215l-.825.381c-1.877.862-3.651,1.676-4.3,2.49a6.518,6.518,0,0,0-1.024,2.146c-.2.666-.546,2.478-.55,2.5A.3.3,0,0,1,1247.647,1400.837Z" transform="translate(-1247.349 -1386.631)" fill="#383b54"/>
      </g>
      <g id="그룹_323" data-name="그룹 323" transform="translate(119.321 107.151)">
        <path id="패스_1077" data-name="패스 1077" d="M1366.287,1391.917a.278.278,0,0,1-.05,0,.3.3,0,0,1-.244-.342c.108-.64.292-1.469.486-2.346.5-2.244,1.328-6,.614-6.5a.3.3,0,0,1,.34-.488c.966.673.454,3.373-.374,7.113-.192.87-.374,1.691-.479,2.316A.3.3,0,0,1,1366.287,1391.917Z" transform="translate(-1365.99 -1382.187)" fill="#383b54"/>
      </g>
      <g id="그룹_324" data-name="그룹 324" transform="translate(104.898 107.037)">
        <path id="패스_1078" data-name="패스 1078" d="M1223.136,1391.233a.272.272,0,0,1-.058-.006.3.3,0,0,1-.234-.349l.1-.487c.254-1.293.782-3.983,1.232-5.683.579-2.186,1.123-3.3,1.764-3.623a.3.3,0,1,1,.266.532c-.313.157-.82.846-1.455,3.243-.446,1.681-.971,4.359-1.224,5.645l-.1.489A.3.3,0,0,1,1223.136,1391.233Z" transform="translate(-1222.839 -1381.053)" fill="#383b54"/>
      </g>
      <g id="그룹_325" data-name="그룹 325" transform="translate(104.521 112.785)">
        <path id="패스_1079" data-name="패스 1079" d="M1225.926,1449.271a4.551,4.551,0,0,1-.987-.107,6.034,6.034,0,0,1-3.721-2.981c-1.672-2.743-3.265-5.85-.989-8a.3.3,0,1,1,.408.432c-1.763,1.668-.891,4.016,1.088,7.262a5.461,5.461,0,0,0,3.342,2.711,5.029,5.029,0,0,0,3.908-.963.3.3,0,1,1,.33.495A6.112,6.112,0,0,1,1225.926,1449.271Z" transform="translate(-1219.099 -1438.096)" fill="#383b54"/>
      </g>
      <g id="그룹_326" data-name="그룹 326" transform="translate(109.014 113.906)">
        <path id="패스_1080" data-name="패스 1080" d="M1263.984,1474.772a.292.292,0,0,1-.135-.032.3.3,0,0,1-.13-.4,41.121,41.121,0,0,0,3.623-9.957l.021-.084c.2-.8.378-1.617.55-2.4a19.631,19.631,0,0,1,1.458-4.885,10.208,10.208,0,0,1,2.014-2.238,14.449,14.449,0,0,0,1.3-1.295c.173-.208.36-.412.549-.618.852-.93,1.657-1.807,1.5-3.3a.3.3,0,0,1,.265-.326.3.3,0,0,1,.326.265,4.617,4.617,0,0,1-1.656,3.763c-.182.2-.363.4-.531.6a14.879,14.879,0,0,1-1.356,1.352,9.8,9.8,0,0,0-1.9,2.095,19.36,19.36,0,0,0-1.393,4.717c-.174.792-.352,1.611-.554,2.421l-.021.084a41.649,41.649,0,0,1-3.671,10.082A.3.3,0,0,1,1263.984,1474.772Z" transform="translate(-1263.687 -1449.232)" fill="#383b54"/>
      </g>
      <g id="그룹_327" data-name="그룹 327" transform="translate(92.019 111.557)">
        <path id="패스_1081" data-name="패스 1081" d="M1105.9,1462.482a8.073,8.073,0,0,1-2.489-.353c-3.109-1.036-4.774-3.652-6.11-6.324-2.581-5.162-2.965-10.837-1.21-17.86a58.7,58.7,0,0,0,1.149-11.739.3.3,0,0,1,.3-.3h0a.3.3,0,0,1,.3.3,59.329,59.329,0,0,1-1.167,11.88c-1.719,6.878-1.349,12.423,1.165,17.451,1.28,2.558,2.863,5.058,5.767,6.026,2.722.907,9.565.359,13.367-7.121a55,55,0,0,0,5.407-17.755l.085-.54c.176-1.1.345-2.038.493-2.853.431-2.385.668-3.7.307-4.906a.3.3,0,0,1,.57-.171c.4,1.344.155,2.708-.292,5.182-.147.812-.316,1.746-.49,2.842l-.086.538a55.5,55.5,0,0,1-5.464,17.932C1114.4,1460.794,1109.346,1462.481,1105.9,1462.482Z" transform="translate(-1095.01 -1425.909)" fill="#383b54"/>
      </g>
      <g id="그룹_328" data-name="그룹 328" transform="translate(93.969 112.475)">
        <path id="패스_1082" data-name="패스 1082" d="M1114.668,1458a.3.3,0,0,1-.3-.286c-.179-4.656,2.156-7.55,4.414-10.348a23.013,23.013,0,0,0,3.006-4.359c.774-1.611,1.332-3.052,1.779-4.21.909-2.35,1.457-3.768,2.714-3.768a.3.3,0,0,1,0,.594c-.85,0-1.343,1.275-2.159,3.388-.452,1.168-1.014,2.621-1.8,4.254a23.763,23.763,0,0,1-3.079,4.474c-2.189,2.714-4.453,5.519-4.282,9.952a.3.3,0,0,1-.286.309Z" transform="translate(-1114.361 -1435.029)" fill="#383b54"/>
      </g>
      <g id="그룹_329" data-name="그룹 329" transform="translate(88.901 49.165)">
        <path id="패스_1083" data-name="패스 1083" d="M1095.383,840.908a.3.3,0,0,1-.3-.3c0-.587.008-1.178.016-1.771.042-3.132.086-6.37-1.071-9.456-.83-2.211-3.554-3.9-5.544-5.141L1088.1,824a31.884,31.884,0,0,0-4.548-2.179,38.37,38.37,0,0,1-4.7-2.22l-.445-.262a40.866,40.866,0,0,1-7.336-5.09,28.457,28.457,0,0,1-3.025-3.323,14.1,14.1,0,0,0-3.829-3.714.3.3,0,0,1,.275-.527,14.489,14.489,0,0,1,4.014,3.865,28.036,28.036,0,0,0,2.959,3.255,40.428,40.428,0,0,0,7.242,5.021l.445.262a38,38,0,0,0,4.626,2.184,32.172,32.172,0,0,1,4.633,2.223l.389.242c2.062,1.282,4.885,3.037,5.786,5.437,1.2,3.192,1.152,6.486,1.109,9.673-.008.591-.016,1.18-.016,1.763A.3.3,0,0,1,1095.383,840.908Z" transform="translate(-1064.058 -806.651)" fill="#383b54"/>
      </g>
      <g id="그룹_330" data-name="그룹 330" transform="translate(94.798 73.799)">
        <path id="패스_1084" data-name="패스 1084" d="M1122.888,1086.3a.306.306,0,0,1-.072-.009.3.3,0,0,1-.217-.36c2.677-10.707,9.508-26.057,17.385-34.68a.3.3,0,0,1,.439.4c-7.81,8.551-14.588,23.79-17.246,34.424A.3.3,0,0,1,1122.888,1086.3Z" transform="translate(-1122.591 -1051.154)" fill="#383b54"/>
      </g>
      <g id="그룹_331" data-name="그룹 331" transform="translate(20.125 61.692)">
        <path id="패스_1085" data-name="패스 1085" d="M382.04,1021.356c1.226-5.29,3.4-13.309,5.521-19.435,3.481-10.037,5.583-17.843,6.613-24.569.884-5.77,1.206-11.845,1.419-15.865.073-1.38.131-2.471.192-3.148.353-3.878.276-21.531-.77-27.109a.3.3,0,0,0-.584.109c1.039,5.54,1.112,23.089.762,26.946-.062.688-.12,1.784-.194,3.17-.212,4.008-.534,10.066-1.412,15.807-1.025,6.69-3.118,14.463-6.587,24.464-2.15,6.195-4.344,14.32-5.569,19.63Z" transform="translate(-381.43 -930.987)" fill="#383b54"/>
      </g>
      <g id="그룹_332" data-name="그룹 332" transform="translate(5.212 48.336)">
        <path id="패스_1086" data-name="패스 1086" d="M233.716,808.944a.289.289,0,0,1-.059-.006.3.3,0,0,1-.233-.349c.008-.041.832-4.159,1.526-7.043.548-2.278.979-2.565,1.638-2.842a2.145,2.145,0,0,0,.444-.232.3.3,0,1,1,.344.484,2.693,2.693,0,0,1-.557.3c-.439.185-.786.331-1.291,2.434-.691,2.873-1.513,6.979-1.521,7.02A.3.3,0,0,1,233.716,808.944Z" transform="translate(-233.418 -798.416)" fill="#383b54"/>
      </g>
      <g id="그룹_333" data-name="그룹 333" transform="translate(8.069 48.966)">
        <path id="패스_1087" data-name="패스 1087" d="M264.205,817.333a.305.305,0,0,1-.064-.007.3.3,0,0,1-.226-.354,35.822,35.822,0,0,0,.788-6.522,6.447,6.447,0,0,0-2.091-4.162c-.524-.58-.87-.963-.835-1.344a.3.3,0,0,1,.592.054,3.4,3.4,0,0,0,.683.891,6.939,6.939,0,0,1,2.244,4.557,35.669,35.669,0,0,1-.8,6.653A.3.3,0,0,1,264.205,817.333Z" transform="translate(-261.775 -804.675)" fill="#383b54"/>
      </g>
      <g id="그룹_334" data-name="그룹 334" transform="translate(10.988 49.472)">
        <path id="패스_1088" data-name="패스 1088" d="M291.043,813.927a.293.293,0,0,1-.136-.033.3.3,0,0,1-.128-.4c.93-1.806,2.662-1.556,4.5-1.293a16.483,16.483,0,0,0,2.158.214h.067c1.77,0,2.856-.889,3.035-1.5a.548.548,0,0,0-.274-.669.3.3,0,1,1,.315-.5,1.14,1.14,0,0,1,.53,1.34c-.276.941-1.63,1.927-3.6,1.927h-.075a17.058,17.058,0,0,1-2.235-.22c-1.758-.254-3.147-.454-3.883.976A.3.3,0,0,1,291.043,813.927Z" transform="translate(-290.746 -809.697)" fill="#383b54"/>
      </g>
      <g id="그룹_335" data-name="그룹 335" transform="translate(19.327 49.546)">
        <path id="패스_1089" data-name="패스 1089" d="M373.811,821.191a.321.321,0,0,1-.057-.005.3.3,0,0,1-.236-.348c.009-.047.909-4.715,1.246-6.2.474-2.087.629-3.131,0-3.684a.3.3,0,1,1,.391-.447c.921.806.673,2.145.191,4.262-.335,1.474-1.233,6.133-1.242,6.18A.3.3,0,0,1,373.811,821.191Z" transform="translate(-373.513 -810.434)" fill="#383b54"/>
      </g>
      <g id="그룹_336" data-name="그룹 336" transform="translate(4.227 57.204)">
        <path id="패스_1090" data-name="패스 1090" d="M232.924,891.687a11.235,11.235,0,0,1-7.3-2.714c-.522-.4-1.018-.782-1.228-.729-.078.017-.15.125-.2.213a.3.3,0,1,1-.526-.278.9.9,0,0,1,.594-.516c.483-.106.973.269,1.716.837a10.564,10.564,0,0,0,7.121,2.591c4.51-.069,5.881-2.065,6.261-2.921a1.608,1.608,0,0,0,.162-1.232.3.3,0,0,1,.023-.42.3.3,0,0,1,.415.018,1.889,1.889,0,0,1-.04,1.835c-.418.972-1.919,3.239-6.812,3.313Z" transform="translate(-223.639 -886.442)" fill="#383b54"/>
      </g>
      <g id="그룹_337" data-name="그룹 337" transform="translate(2.305 57.057)">
        <path id="패스_1091" data-name="패스 1091" d="M204.859,909.121h-.011a.3.3,0,0,1-.286-.308,81.922,81.922,0,0,1,1.058-9.679l.059-.385c.129-.842.275-1.653.419-2.453a44.058,44.058,0,0,0,.708-5.073,9.044,9.044,0,0,0-.177-1.993c-.24-1.472-.488-2.994.948-4.183a.3.3,0,1,1,.379.458c-1.173.972-.972,2.2-.74,3.629a9.488,9.488,0,0,1,.183,2.127,44.5,44.5,0,0,1-.716,5.14c-.143.8-.288,1.6-.417,2.439l-.059.385a81.437,81.437,0,0,0-1.052,9.61A.3.3,0,0,1,204.859,909.121Z" transform="translate(-204.562 -884.978)" fill="#383b54"/>
      </g>
      <g id="그룹_338" data-name="그룹 338" transform="translate(0 56.379)">
        <path id="패스_1092" data-name="패스 1092" d="M191.872,930.053a13.77,13.77,0,0,1-6.6-1.509c-2.435-1.326-3.707-4.751-3.579-9.644.025-.945.041-2.2.06-3.643.067-5.091.168-12.785.785-17.495.481-3.68,1.037-6.64,1.484-9.019.281-1.5.5-2.676.622-3.6a8.172,8.172,0,0,0,.011-1.147c-.057-1.856-.143-4.661,2.825-5.734a.3.3,0,0,1,.2.56c-2.563.925-2.488,3.37-2.433,5.156a8.441,8.441,0,0,1-.016,1.242c-.122.938-.345,2.126-.628,3.63-.445,2.371-1,5.322-1.479,8.985-.612,4.675-.713,12.349-.78,17.426-.019,1.448-.036,2.7-.06,3.65-.121,4.659,1.04,7.893,3.27,9.106,5.837,3.179,14.659.442,19.059-2.518a47.8,47.8,0,0,0,10.776-11.025.3.3,0,1,1,.488.34A48.464,48.464,0,0,1,204.946,926,24.739,24.739,0,0,1,191.872,930.053Z" transform="translate(-181.683 -878.25)" fill="#383b54"/>
      </g>
      <g id="그룹_339" data-name="그룹 339" transform="translate(19.073 56.863)">
        <path id="패스_1093" data-name="패스 1093" d="M372.513,921.6h-.028a.3.3,0,0,1-.268-.324,82.333,82.333,0,0,0,.337-10.492,23.37,23.37,0,0,0-.769-4.569,22.526,22.526,0,0,1-.793-4.989,58.231,58.231,0,0,1,1.057-9.845c.194-1.17.394-2.379.564-3.573.3-2.116.157-3.988-.321-4.175a.3.3,0,1,1,.216-.554c1.213.472.838,3.8.694,4.812-.171,1.2-.372,2.414-.566,3.588a57.769,57.769,0,0,0-1.049,9.744,22.106,22.106,0,0,0,.777,4.856,23.849,23.849,0,0,1,.785,4.687,83.054,83.054,0,0,1-.339,10.566A.3.3,0,0,1,372.513,921.6Z" transform="translate(-370.992 -883.055)" fill="#383b54"/>
      </g>
      <g id="그룹_340" data-name="그룹 340" transform="translate(19.152 46.155)">
        <path id="패스_1094" data-name="패스 1094" d="M372.072,804.994a.3.3,0,0,1-.214-.5,30.45,30.45,0,0,0,4.077-6.079c.208-.37.411-.731.61-1.079.329-.575.694-1.222,1.084-1.915a80.442,80.442,0,0,1,6.212-9.948c2.323-2.843,6.578-3.491,10.025-3.737.522-.037,1.051-.066,1.6-.1a44.626,44.626,0,0,0,7.911-.987,20.345,20.345,0,0,0,5.5-2.238,15.32,15.32,0,0,1,3.783-1.627.3.3,0,1,1,.134.579,14.886,14.886,0,0,0-3.634,1.571,20.855,20.855,0,0,1-5.653,2.295,45.22,45.22,0,0,1-8.007,1c-.543.029-1.068.058-1.587.1-3.328.238-7.428.853-9.607,3.52a81.547,81.547,0,0,0-6.155,9.864c-.391.695-.756,1.343-1.086,1.919-.2.347-.4.706-.608,1.075a30.862,30.862,0,0,1-4.168,6.2A.3.3,0,0,1,372.072,804.994Z" transform="translate(-371.775 -776.776)" fill="#383b54"/>
      </g>
      <g id="그룹_341" data-name="그룹 341" transform="translate(58.911 49.139)">
        <path id="패스_1095" data-name="패스 1095" d="M766.693,864.182a.3.3,0,0,1-.3-.3c0-2.042,2.668-9.966,8.834-19.031l.755-1.11c5.69-8.36,11.065-16.255,15.162-25.474,1.637-3.684,3.167-8.862,2.657-11.525a.3.3,0,0,1,.584-.111c.534,2.788-1.025,8.112-2.7,11.878-4.119,9.267-9.508,17.184-15.214,25.567l-.756,1.11c-6.218,9.143-8.731,16.972-8.731,18.7A.3.3,0,0,1,766.693,864.182Z" transform="translate(-766.396 -806.393)" fill="#383b54"/>
      </g>
      <g id="그룹_342" data-name="그룹 342" transform="translate(45.362 45.678)">
        <path id="패스_1096" data-name="패스 1096" d="M632.54,878.425c1.659-5.759,4.625-13.384,7.311-20.289,2.461-6.326,4.586-11.789,5.08-14.262.909-4.555,1.274-10.416,1.344-21.625.065-10.282.129-13.709.427-26.627.011-.474.02-1.045.031-1.692.1-5.8.3-17.861,2.562-21.432a.3.3,0,1,0-.5-.319c-2.355,3.712-2.557,15.889-2.654,21.74-.011.646-.02,1.216-.031,1.688-.3,12.921-.362,16.35-.427,26.637-.071,11.167-.432,17-1.333,21.512-.484,2.422-2.6,7.863-5.051,14.163-2.715,6.981-5.715,14.694-7.375,20.5Z" transform="translate(-631.922 -772.042)" fill="#383b54"/>
      </g>
      <g id="그룹_343" data-name="그룹 343" transform="translate(53.956 127.205)">
        <path id="패스_1097" data-name="패스 1097" d="M718.615,1606.078c-.814-6.925-1.094-18.605-.413-24.526a.3.3,0,1,0-.59-.069c-.7,6.063-.428,17.611.4,24.594Z" transform="translate(-717.213 -1581.222)" fill="#383b54"/>
      </g>
      <g id="그룹_344" data-name="그룹 344" transform="translate(58.704 61.081)">
        <path id="패스_1098" data-name="패스 1098" d="M764.638,974.436a.3.3,0,0,1-.279-.4c1.33-3.656,3.63-7.442,7.458-12.274a67.958,67.958,0,0,1,11.047-10.543,60.014,60.014,0,0,0,8.564-8.85c4.231-5.3,7.561-10.671,7.591-11.518-.4-.32-1.908.044-3.125.34a13.4,13.4,0,0,1-3.508.548c-2.423-.154-3.239-4.543-3.239-6.522a.3.3,0,0,1,.595,0c0,2.067.9,5.815,2.682,5.929a12.863,12.863,0,0,0,3.33-.533c1.7-.412,3.175-.769,3.748-.12.857.973-5.368,9.439-7.61,12.247a60.63,60.63,0,0,1-8.657,8.944,67.38,67.38,0,0,0-10.952,10.448c-3.787,4.78-6.059,8.514-7.366,12.108A.3.3,0,0,1,764.638,974.436Z" transform="translate(-764.341 -924.92)" fill="#383b54"/>
      </g>
      <g id="그룹_345" data-name="그룹 345" transform="translate(48.988 58.709)">
        <path id="패스_1099" data-name="패스 1099" d="M677.256,958.031a.3.3,0,0,1-.3-.282,46.773,46.773,0,0,0-2.095-12.151l-.423-1.548c-.479-1.768-.877-3.17-1.218-4.369-.668-2.352-1.109-3.906-1.51-5.909a102.668,102.668,0,0,1-1.556-11.746c-.143-1.6-.291-3.245-.49-4.956-.206-1.772-.546-3.742-.874-5.647-.856-4.966-1.295-7.806-.359-8.442,1.161-.792,2.487.553,3.456,1.534.239.242.464.47.647.625a2.434,2.434,0,0,0,2.036.726c1.217-.213,2.567-1.633,4.127-4.343a.3.3,0,1,1,.515.3c-1.676,2.912-3.118,4.384-4.54,4.632a3.014,3.014,0,0,1-2.522-.857c-.2-.172-.438-.409-.686-.661-.822-.831-1.945-1.971-2.7-1.46-.665.452.042,4.554.61,7.85.33,1.913.671,3.891.879,5.68.2,1.718.349,3.372.492,4.971a102.094,102.094,0,0,0,1.547,11.684c.4,1.98.835,3.525,1.5,5.863.341,1.2.74,2.606,1.22,4.376l.423,1.547a47.81,47.81,0,0,1,2.115,12.277.3.3,0,0,1-.281.312Z" transform="translate(-667.909 -901.373)" fill="#383b54"/>
      </g>
      <g id="그룹_346" data-name="그룹 346" transform="translate(50.506 42.779)">
        <path id="패스_1100" data-name="패스 1100" d="M688.664,763.871a.3.3,0,0,1-.261-.156,15.869,15.869,0,0,0-3.843-4.376c-.172-.149-.332-.287-.477-.416a2.7,2.7,0,0,0-.276-.2,1.743,1.743,0,0,1-.784-.824c-.284-1,.735-1.658,1.41-2.1.142-.092.272-.176.372-.253.338-.258.663-.5.982-.728a16.575,16.575,0,0,0,4.145-3.978,29.273,29.273,0,0,0,2.076-3.358,17.416,17.416,0,0,1,2.842-4.14.3.3,0,1,1,.416.425,17,17,0,0,0-2.738,4,29.793,29.793,0,0,1-2.118,3.424,17.282,17.282,0,0,1-4.271,4.1c-.315.23-.636.464-.971.72-.11.084-.253.177-.409.279-.7.454-1.314.9-1.163,1.434.045.157.333.352.545.495a3.44,3.44,0,0,1,.338.248c.143.127.3.264.471.41a16.6,16.6,0,0,1,3.976,4.542.3.3,0,0,1-.261.439Z" transform="translate(-682.975 -743.262)" fill="#383b54"/>
      </g>
      <g id="그룹_347" data-name="그룹 347" transform="translate(85.288 44.535)">
        <path id="패스_1101" data-name="패스 1101" d="M1029.44,783.808a.292.292,0,0,1-.176-.058.3.3,0,0,1-.063-.415c1.686-2.292,4.34-3.445,6.277-4.287.526-.229,1.023-.445,1.423-.65.3-.156.472-.309.5-.453.057-.3-.413-.833-.957-1.448a14.868,14.868,0,0,1-1.972-2.643,28.985,28.985,0,0,1-2.21-6.391c-.781-3.657-1.986-4.606-3.05-5.442a7.123,7.123,0,0,1-.935-.829.3.3,0,0,1,.442-.4,6.674,6.674,0,0,0,.86.758c1.086.854,2.439,1.918,3.264,5.786a28.263,28.263,0,0,0,2.147,6.225,14.362,14.362,0,0,0,1.9,2.54c.7.792,1.206,1.364,1.1,1.952-.064.344-.322.621-.811.872-.417.215-.923.435-1.458.667-1.875.815-4.444,1.931-6.036,4.094A.3.3,0,0,1,1029.44,783.808Z" transform="translate(-1028.2 -760.695)" fill="#383b54"/>
      </g>
      <g id="그룹_348" data-name="그룹 348" transform="translate(60.305 46.902)">
        <path id="패스_1102" data-name="패스 1102" d="M780.526,839.094a.3.3,0,0,1-.281-.392,83.879,83.879,0,0,0,2.21-10.162c.45-2.509.876-4.878,1.337-6.877a36.173,36.173,0,0,1,3.417-8.274,45.308,45.308,0,0,0,2.831-6.266c.25-.749.522-1.855.81-3.025.679-2.758,1.449-5.884,2.527-7.231a7.327,7.327,0,0,1,3.2-2.163,28.952,28.952,0,0,0,3.7-1.905c2.66-1.629,4.39-3.586,4.744-5.367a3.424,3.424,0,0,0-.641-2.77.3.3,0,1,1,.481-.349,4,4,0,0,1,.744,3.236c-.392,1.971-2.175,4.016-5.017,5.758a29.393,29.393,0,0,1-3.766,1.941,6.781,6.781,0,0,0-2.981,1.992c-1,1.245-1.783,4.437-2.414,7-.291,1.182-.567,2.3-.824,3.071a45.831,45.831,0,0,1-2.866,6.351,35.708,35.708,0,0,0-3.366,8.135c-.458,1.984-.882,4.347-1.331,6.848a84.093,84.093,0,0,1-2.233,10.247A.3.3,0,0,1,780.526,839.094Z" transform="translate(-780.229 -784.19)" fill="#383b54"/>
      </g>
      <g id="그룹_349" data-name="그룹 349" transform="translate(63.404 44.367)">
        <path id="패스_1103" data-name="패스 1103" d="M817.08,786.812a.3.3,0,0,1-.279-.193c-1.022-2.745-.444-5.514.115-8.192a15.32,15.32,0,0,0,.484-6.02c-.19-.951-.822-1.685-2.7-3.861l-.846-.983c-2.275-2.653-3.268-5.68-2.725-8.3a.3.3,0,0,1,.582.12c-.239,1.156-.464,4.228,2.594,7.8l.845.982c1.951,2.264,2.608,3.027,2.829,4.132a15.726,15.726,0,0,1-.485,6.257c-.542,2.6-1.1,5.28-.14,7.863a.3.3,0,0,1-.279.4Z" transform="translate(-810.988 -759.022)" fill="#383b54"/>
      </g>
      <g id="그룹_350" data-name="그룹 350" transform="translate(60.272 53.282)">
        <path id="패스_1104" data-name="패스 1104" d="M787.591,862.284h-.012a.3.3,0,0,1-.286-.309,19.152,19.152,0,0,0-.157-3.255,5.143,5.143,0,0,1,.064-2.36c.073-.221.184-.49.305-.783a6.208,6.208,0,0,0,.607-2.064c-.023-.895-.263-1.5-.694-1.75a1.011,1.011,0,0,0-.865-.06,11.4,11.4,0,0,0-3.1,3.263,10.813,10.813,0,0,1-1.78,2.08.431.431,0,0,1-.449.064c-.364-.169-.413-.726-.528-2.635a43.322,43.322,0,0,0-.783-6.6.3.3,0,1,1,.581-.124,43.805,43.805,0,0,1,.8,6.69,18.035,18.035,0,0,0,.18,2,13.294,13.294,0,0,0,1.5-1.831,11.777,11.777,0,0,1,3.3-3.433,1.578,1.578,0,0,1,1.445.07,2.428,2.428,0,0,1,.99,2.249,6.425,6.425,0,0,1-.652,2.306c-.115.278-.221.533-.29.743a4.653,4.653,0,0,0-.038,2.1,19.74,19.74,0,0,1,.161,3.348A.3.3,0,0,1,787.591,862.284Z" transform="translate(-779.906 -847.514)" fill="#383b54"/>
      </g>
      <g id="그룹_351" data-name="그룹 351" transform="translate(72.782 58.521)">
        <path id="패스_1105" data-name="패스 1105" d="M910.094,907.134a1.076,1.076,0,0,1-.529-.145c-.458-.255-.733-1.329-1.206-3.549-.146-.684-.3-1.393-.447-1.946-.215-.8-.616-1.31-1.075-1.379-.613-.093-1.406.563-2.211,1.846a.3.3,0,1,1-.5-.316c1.2-1.917,2.194-2.206,2.8-2.118.709.106,1.279.766,1.561,1.811.154.57.307,1.286.455,1.978a11.3,11.3,0,0,0,.917,3.155c.613.339,1.5-.825,2.737-2.433a44.931,44.931,0,0,1,3.015-3.623.3.3,0,1,1,.432.409,44.217,44.217,0,0,0-2.975,3.576C911.842,905.991,910.964,907.134,910.094,907.134Z" transform="translate(-904.076 -899.513)" fill="#383b54"/>
      </g>
      <g id="그룹_352" data-name="그룹 352" transform="translate(62.71 35.173)">
        <path id="패스_1106" data-name="패스 1106" d="M817.348,683.184c-.136,0-.272,0-.41-.007-6.466-.228-11.182-6.337-12.827-11.917a.3.3,0,1,1,.57-.168c1.587,5.382,6.106,11.273,12.278,11.491,9.193.326,12.327-11.076,13.066-14.578a.3.3,0,1,1,.582.123C829.855,671.692,826.7,683.184,817.348,683.184Z" transform="translate(-804.099 -667.769)" fill="#383b54"/>
      </g>
      <g id="그룹_353" data-name="그룹 353" transform="translate(57.469 28.287)">
        <path id="패스_1107" data-name="패스 1107" d="M756.673,608.3h-.023c-2.161-.166-4.572-2.624-4.563-5.668,0-1.519.521-2.625,1.418-3.033a2.68,2.68,0,0,1,2.824.739.3.3,0,0,1-.389.45,2.131,2.131,0,0,0-2.189-.647c-.676.308-1.067,1.217-1.07,2.494-.008,2.727,2.113,4.928,4.014,5.074a.3.3,0,0,1-.022.594Z" transform="translate(-752.087 -599.43)" fill="#383b54"/>
      </g>
      <g id="그룹_354" data-name="그룹 354" transform="translate(88.528 29.204)">
        <path id="패스_1108" data-name="패스 1108" d="M1060.657,616.357a.3.3,0,0,1-.158-.549,6.686,6.686,0,0,0,2.559-3.745,2.855,2.855,0,0,0-.157-2.511,1.37,1.37,0,0,0-1.183-.422.3.3,0,0,1-.051-.592,1.936,1.936,0,0,1,1.688.631,3.328,3.328,0,0,1,.278,3.046,7.156,7.156,0,0,1-2.82,4.1A.3.3,0,0,1,1060.657,616.357Z" transform="translate(-1060.36 -608.528)" fill="#383b54"/>
      </g>
      <g id="그룹_355" data-name="그룹 355" transform="translate(76.13 29.583)">
        <path id="패스_1109" data-name="패스 1109" d="M937.6,618.871a.3.3,0,0,1-.105-.575,1.668,1.668,0,0,0,1.028-.769,2.022,2.022,0,0,0-.312-1.461l-.032-.069a3.846,3.846,0,0,1,.143-3.531.3.3,0,0,1,.541.246,3.274,3.274,0,0,0-.145,3.035l.031.068a2.445,2.445,0,0,1,.323,1.936,2.173,2.173,0,0,1-1.368,1.1A.3.3,0,0,1,937.6,618.871Z" transform="translate(-937.298 -612.292)" fill="#383b54"/>
      </g>
      <g id="그룹_356" data-name="그룹 356" transform="translate(67.909 23.432)">
        <path id="패스_1110" data-name="패스 1110" d="M861.023,552.756a.3.3,0,0,1-.2-.073c-1.436-1.248-3.712-.846-4.715-.459a.3.3,0,1,1-.214-.554c1.2-.463,3.674-.865,5.319.565a.3.3,0,0,1-.2.522Z" transform="translate(-855.709 -551.241)" fill="#383b54"/>
      </g>
      <g id="그룹_357" data-name="그룹 357" transform="translate(80.888 23.572)">
        <path id="패스_1111" data-name="패스 1111" d="M984.825,554.1a.3.3,0,0,1-.189-.527,4.14,4.14,0,0,1,4.936-.258.3.3,0,1,1-.383.454,3.562,3.562,0,0,0-4.175.264A.3.3,0,0,1,984.825,554.1Z" transform="translate(-984.528 -552.627)" fill="#383b54"/>
      </g>
      <g id="그룹_358" data-name="그룹 358" transform="translate(59.696 31.301)">
        <path id="패스_1112" data-name="패스 1112" d="M776.325,632.084a.3.3,0,0,1-.284-.21,3.5,3.5,0,0,0-1.678-1.965.3.3,0,0,1,.251-.539,4.041,4.041,0,0,1,2,2.329.3.3,0,0,1-.284.385Z" transform="translate(-774.192 -629.343)" fill="#383b54"/>
      </g>
      <g id="그룹_359" data-name="그룹 359" transform="translate(84.024 45.863)">
        <path id="패스_1113" data-name="패스 1113" d="M1016.19,780.076a.3.3,0,0,1-.289-.228,29.3,29.3,0,0,1-.183-5.689.3.3,0,0,1,.312-.281.3.3,0,0,1,.281.313,29.5,29.5,0,0,0,.168,5.519.3.3,0,0,1-.22.358A.283.283,0,0,1,1016.19,780.076Z" transform="translate(-1015.658 -773.878)" fill="#383b54"/>
      </g>
      <g id="그룹_360" data-name="그룹 360" transform="translate(62.716 38.328)">
        <path id="패스_1114" data-name="패스 1114" d="M805.607,709.748h-.015a.3.3,0,0,1-.283-.311,37.948,37.948,0,0,0-.9-8.67c-.09-.478-.174-.923-.245-1.329a.3.3,0,1,1,.586-.1c.07.4.154.846.244,1.321a38.414,38.414,0,0,1,.911,8.808A.3.3,0,0,1,805.607,709.748Z" transform="translate(-804.159 -699.09)" fill="#383b54"/>
      </g>
      <g id="그룹_361" data-name="그룹 361" transform="translate(88.993 22.9)">
        <path id="패스_1115" data-name="패스 1115" d="M1065.272,554.938a.3.3,0,0,1-.289-.367,49.389,49.389,0,0,0,.051-8.3.3.3,0,0,1,.593-.045,49.459,49.459,0,0,1-.066,8.479A.3.3,0,0,1,1065.272,554.938Z" transform="translate(-1064.975 -545.957)" fill="#383b54"/>
      </g>
      <g id="그룹_362" data-name="그룹 362" transform="translate(56.285 3.248)">
        <path id="패스_1116" data-name="패스 1116" d="M740.627,366.137a.3.3,0,0,1-.2-.518c.621-.558.769-1.954.941-3.571a15.6,15.6,0,0,1,1.556-6.14c2.04-3.568,5.645-5.679,8.208-4.8a.3.3,0,1,1-.192.563c-2.3-.784-5.6,1.209-7.5,4.537a14.909,14.909,0,0,0-1.481,5.909c-.193,1.81-.345,3.24-1.135,3.95A.3.3,0,0,1,740.627,366.137Z" transform="translate(-740.33 -350.905)" fill="#383b54"/>
      </g>
      <g id="그룹_363" data-name="그룹 363" transform="translate(57.5 20.242)">
        <path id="패스_1117" data-name="패스 1117" d="M754.163,528.1a.3.3,0,0,1-.277-.191c-.074-.194-1.819-4.784-1.434-8.073a.3.3,0,1,1,.59.069c-.368,3.145,1.381,7.745,1.4,7.791a.3.3,0,0,1-.277.4Z" transform="translate(-752.396 -519.575)" fill="#383b54"/>
      </g>
      <g id="그룹_364" data-name="그룹 364" transform="translate(69.103 0)">
        <path id="패스_1118" data-name="패스 1118" d="M889.294,325.371a8.942,8.942,0,0,1-4.864-1.7c-3.333-2.507-11.6-7.67-16.336-1.46a.3.3,0,1,1-.473-.36c3.563-4.67,9.82-4.179,17.166,1.345a7.746,7.746,0,0,0,4.942,1.549.3.3,0,0,1,.115.583A2.905,2.905,0,0,1,889.294,325.371Z" transform="translate(-867.56 -318.667)" fill="#383b54"/>
      </g>
      <g id="그룹_365" data-name="그룹 365" transform="translate(60.811 13.713)">
        <path id="패스_1119" data-name="패스 1119" d="M786.059,467.875a5.019,5.019,0,0,1-.538-.03.3.3,0,1,1,.064-.591c3.231.346,4.055-2.876,4.925-6.291.808-3.167,1.647-6.432,4.7-6.174a.3.3,0,0,1,.27.322.288.288,0,0,1-.322.27c-2.536-.22-3.293,2.667-4.073,5.729C790.275,464.29,789.362,467.875,786.059,467.875Z" transform="translate(-785.256 -454.774)" fill="#383b54"/>
      </g>
      <g id="그룹_366" data-name="그룹 366" transform="translate(76.25 13.185)">
        <path id="패스_1120" data-name="패스 1120" d="M951.946,458.1c-4.729,0-6.677-2.912-8.255-5.273-1.426-2.13-2.367-3.539-4.749-2.105a.3.3,0,1,1-.306-.509c2.866-1.725,4.109.132,5.549,2.284,1.564,2.339,3.507,5.26,8.375,4.992a.3.3,0,0,1,.312.281.3.3,0,0,1-.281.313C952.371,458.09,952.155,458.1,951.946,458.1Z" transform="translate(-938.492 -449.53)" fill="#383b54"/>
      </g>
      <g id="그룹_367" data-name="그룹 367" transform="translate(89.555 8.093)">
        <path id="패스_1121" data-name="패스 1121" d="M1071.85,420.566a.3.3,0,0,1-.292-.357c.292-1.428.626-2.83.948-4.186,1.6-6.716,2.976-12.516-1.846-16.5a.3.3,0,1,1,.378-.458c5.108,4.223,3.688,10.19,2.046,17.1-.321,1.351-.654,2.748-.943,4.167A.3.3,0,0,1,1071.85,420.566Z" transform="translate(-1070.552 -398.994)" fill="#383b54"/>
      </g>
      <g id="그룹_368" data-name="그룹 368" transform="translate(68.661 5.422)">
        <path id="패스_1122" data-name="패스 1122" d="M866.117,378.351a.3.3,0,0,1-.292-.245,9.751,9.751,0,0,0-2.567-5.112.3.3,0,0,1,.419-.421A10.358,10.358,0,0,1,866.41,378a.3.3,0,0,1-.293.349Z" transform="translate(-863.17 -372.486)" fill="#383b54"/>
      </g>
      <g id="그룹_369" data-name="그룹 369" transform="translate(73.552 10.407)">
        <path id="패스_1123" data-name="패스 1123" d="M912.016,425.743a.3.3,0,0,1-.3-.288,3.607,3.607,0,0,1,1.209-2.655,2.84,2.84,0,0,1,2.245-.821.3.3,0,0,1,.261.33.294.294,0,0,1-.33.26,2.255,2.255,0,0,0-1.773.668,3,3,0,0,0-1.016,2.2.3.3,0,0,1-.289.306Z" transform="translate(-911.717 -421.964)" fill="#383b54"/>
      </g>
      <g id="그룹_370" data-name="그룹 370" transform="translate(71.852 39.079)">
        <path id="패스_1124" data-name="패스 1124" d="M899.35,712.6a4.532,4.532,0,0,1-3.879-2.377,3.119,3.119,0,0,1-.434-2.857c.533-.905,4.746-.882,6.22-.772,2.528.19,2.731.7,2.808.888a3.6,3.6,0,0,1-.741,2.818,4.815,4.815,0,0,1-3.886,2.3Zm-3.8-4.931a2.658,2.658,0,0,0,.435,2.254A3.933,3.933,0,0,0,899.425,712a4.238,4.238,0,0,0,3.4-2.033,3.229,3.229,0,0,0,.686-2.268c-.053-.1-.579-.39-2.335-.518C898.469,706.983,895.8,707.337,895.548,707.665Zm0,0Zm-.255-.153h0Z" transform="translate(-894.843 -706.537)" fill="#383b54"/>
      </g>
      <g id="그룹_371" data-name="그룹 371" transform="translate(81.813 29.338)">
        <path id="패스_1125" data-name="패스 1125" d="M994,611a.3.3,0,0,1-.171-.54,3.606,3.606,0,0,1,3.355-.336.3.3,0,1,1-.238.545,3,3,0,0,0-2.775.278A.3.3,0,0,1,994,611Z" transform="translate(-993.705 -609.856)" fill="#383b54"/>
      </g>
      <g id="그룹_372" data-name="그룹 372" transform="translate(68.233 29.297)">
        <path id="패스_1126" data-name="패스 1126" d="M862.459,610.7a.294.294,0,0,1-.186-.066,3.065,3.065,0,0,0-2.946-.362.3.3,0,0,1-.222-.551,3.629,3.629,0,0,1,3.54.451.3.3,0,0,1-.186.529Z" transform="translate(-858.919 -609.45)" fill="#383b54"/>
      </g>
      <g id="그룹_373" data-name="그룹 373" transform="translate(61.367 43.702)">
        <path id="패스_1127" data-name="패스 1127" d="M791.069,757.185a.3.3,0,0,1-.237-.475,7.14,7.14,0,0,0,1.053-2.428,3.088,3.088,0,0,1,.923-1.808.3.3,0,1,1,.33.495,2.832,2.832,0,0,0-.681,1.476,7.717,7.717,0,0,1-1.149,2.621A.3.3,0,0,1,791.069,757.185Z" transform="translate(-790.772 -752.424)" fill="#383b54"/>
      </g>
      <g id="그룹_374" data-name="그룹 374" transform="translate(84.353 46.479)">
        <path id="패스_1128" data-name="패스 1128" d="M1021.228,785.349a.3.3,0,0,1-.292-.241,21.533,21.533,0,0,0-.71-2.653l-.1-.29a2.531,2.531,0,0,0-1.058-1.626.3.3,0,1,1,.3-.513,3.1,3.1,0,0,1,1.321,1.95l.1.283a21.8,21.8,0,0,1,.734,2.738.3.3,0,0,1-.236.348A.312.312,0,0,1,1021.228,785.349Z" transform="translate(-1018.922 -779.985)" fill="#383b54"/>
      </g>
      <g id="그룹_375" data-name="그룹 375" transform="translate(53.099 112.72)">
        <path id="패스_1129" data-name="패스 1129" d="M710.684,1442.7h-.053a2.083,2.083,0,0,1-1.716-2.965,3.452,3.452,0,0,1,1.926-1.478,2.227,2.227,0,0,0-.96-.206.3.3,0,1,1,0-.594,2.6,2.6,0,0,1,2.229,1.138,3.034,3.034,0,0,1,.245,2.833A1.8,1.8,0,0,1,710.684,1442.7Zm.736-4.021a3.262,3.262,0,0,0-1.974,1.325,1.429,1.429,0,0,0-.04,1.144,1.412,1.412,0,0,0,1.243.958,1.208,1.208,0,0,0,1.156-.9,2.442,2.442,0,0,0-.185-2.28A2,2,0,0,0,711.42,1438.677Z" transform="translate(-708.713 -1437.455)" fill="#383b54"/>
      </g>
      <g id="그룹_376" data-name="그룹 376" transform="translate(96.919 145.134)">
        <path id="패스_1130" data-name="패스 1130" d="M1145.263,1766.109c-.424-3.047-.99-6.451-1.027-6.677a.3.3,0,1,0-.586.1c.279,1.675.692,4.284,1.012,6.58Z" transform="translate(-1143.645 -1759.182)" fill="#383b54"/>
      </g>
    </g>
  </g>
</svg>
