<svg xmlns="http://www.w3.org/2000/svg" width="21.084" height="20.412" viewBox="0 0 21.084 20.412">
  <path id="패스_1530" data-name="패스 1530" d="M20.819,14.849a1,1,0,0,0-.082-1.439L11.314,5.166a1.175,1.175,0,0,0-1.532.018L.328,13.85a1,1,0,0,0-.045,1.437l.237.247a1.034,1.034,0,0,0,1.419.109l.707-.633v9.264A1.028,1.028,0,0,0,3.673,25.3H7.359a1.028,1.028,0,0,0,1.029-1.029V17.792h4.7v6.481a.972.972,0,0,0,.966,1.028H17.96a1.028,1.028,0,0,0,1.029-1.029V15.14l.436.383c.24.211.745.042,1.127-.379Z" transform="translate(0 -4.89)" fill="#d4d4d4"/>
</svg>
