<svg xmlns="http://www.w3.org/2000/svg" width="161.897" height="194.922" viewBox="0 0 161.897 194.922">
  <g id="그룹_16186" data-name="그룹 16186" transform="translate(-114 -276)">
    <path id="패스_1532" data-name="패스 1532" d="M1197.506,308.5c-.565-.486-.443-2.022-.628-2.763-.834-3.332-1.044-10.667-1.044-10.667s-1.135-1.479-1.662-2.11a23.715,23.715,0,0,1-2.4-4.086l-1.459-5.815a5.631,5.631,0,0,1-1.549-.9c-1.618-1.471-2.032-5.01-2.043-6.287a4.251,4.251,0,0,1,1.033-2.447,65.13,65.13,0,0,0,2.795-6.731,33.741,33.741,0,0,1,7.888-14.169c1.787-1.883,4.045-3.253,6.683-2.462,5.157,1.547,7.3,7.942,10.6,11.657,2.414,2.717,5.172,5.172,7.738,7.738,2.2,2.2,4.26,3.636,5.276,6.682.65,1.951-1.089,5.678-2.612,6.983-1.151.987-2.582.763-3.233,1.954s-.989,7.049-.989,10.056c0,1.215.2,3.931.2,3.931a10.431,10.431,0,0,1-1.114,1.92c-1.648,2.064-4.829,5.546-6.575,7.916-2.4,3.254-3.962,7.162-5.426,10.9-.4,1.025-.806,3.671-2.161,4.07-1.467.432-2.7-1.276-3.417-2.261a38.633,38.633,0,0,1-4.422-9.145,26.391,26.391,0,0,1-1.155-3.015A3.039,3.039,0,0,0,1197.506,308.5Z" transform="translate(-997.293 37.219)" fill="#ffedde" fill-rule="evenodd"/>
    <path id="패스_1533" data-name="패스 1533" d="M866.22,658.184v0l0,0h0l-.007.006-.006.007h0a.133.133,0,0,1-.015.012l0,0a.136.136,0,0,1-.027.02l0,0-.013.007s0,.007-.005.01a.567.567,0,0,1-.064.076l-.024.021-.028.021a.073.073,0,0,1-.018.027c-.014.016-.033.028-.047.045v0a.124.124,0,0,1-.02.02.079.079,0,0,1-.008.012l-.016.014a.079.079,0,0,1-.006.017,2.335,2.335,0,0,1-.175.213l-.014.017-.009.017a.2.2,0,0,1-.041.052l-.01.006a1.073,1.073,0,0,1-.079.1,1.073,1.073,0,0,0,.652-.741Z" transform="translate(-718.769 -316.931)" fill="#ffedde" fill-rule="evenodd"/>
    <path id="패스_1534" data-name="패스 1534" d="M813.025,515.5a1.668,1.668,0,0,1,.442.063,5.694,5.694,0,0,0,.378-2.852,2.859,2.859,0,0,0-.747,1.026,2.44,2.44,0,0,0-.189.47c-.087.246-.166.495-.243.744-.068.217-.14.432-.214.645A1.754,1.754,0,0,1,813.025,515.5Z" transform="translate(-672.696 -190.766)" fill="#ffedde" fill-rule="evenodd"/>
    <path id="패스_1535" data-name="패스 1535" d="M811.62,526.365a1.67,1.67,0,0,1,.442.063,5.692,5.692,0,0,0,.378-2.852,2.858,2.858,0,0,0-.747,1.026,2.443,2.443,0,0,0-.189.47c-.087.246-.166.495-.243.744-.068.217-.14.432-.214.645A1.754,1.754,0,0,1,811.62,526.365Z" transform="translate(-671.478 -200.191)" fill="#ffedde" fill-rule="evenodd"/>
    <path id="패스_1536" data-name="패스 1536" d="M811.237,534.216a1.668,1.668,0,0,1,.442.063,5.694,5.694,0,0,0,.378-2.852,2.858,2.858,0,0,0-.747,1.026,2.441,2.441,0,0,0-.189.469c-.087.246-.165.495-.243.744-.068.217-.14.432-.214.645A1.754,1.754,0,0,1,811.237,534.216Z" transform="translate(-671.146 -207)" fill="#ffedde" fill-rule="evenodd"/>
    <path id="패스_1537" data-name="패스 1537" d="M701.825,523.245c-.061-.306-.473-.506-.7-.656-.932-.621-2.058.546-2.622,1.27a9.44,9.44,0,0,0-1.106,2.622,15.854,15.854,0,0,1-2.007,4.1c-.458.611-1.015,2-2.007,1.8a1.806,1.806,0,0,1-1.27-1.6,9.113,9.113,0,0,1,.123-2.539c.145-1.311.029-2.654.2-3.973a3.966,3.966,0,0,1,.778-2.294,1.486,1.486,0,0,1,.547-.369,5.115,5.115,0,0,0,.163-1.206,1.073,1.073,0,0,1,.013-.171,1.909,1.909,0,0,1-.036-.247.744.744,0,0,1,.008-.171c-.014-.032-.027-.065-.038-.1a1.344,1.344,0,0,1-.153-.642q-.29.185-.593.347a1.823,1.823,0,0,1-2.451-.643,1.79,1.79,0,0,1-.229-1.025,1.365,1.365,0,0,1-.414-.419,1.106,1.106,0,0,1-.159-.454l-.007.011c0,.208.011.416.029.627a.947.947,0,0,1-.773.933c-.192.517-.358,1.034-.536,1.481-.241.6-.365,1.262-.656,1.844-.044.088-.2.455-.328.327-.282-.282-.215-.872-.164-1.229.118-.825.191-1.641.328-2.458.06-.362.134-.722.215-1.081-.025-.426-.017-.845-.01-1.274a5.957,5.957,0,0,1,.055-1.29,3.8,3.8,0,0,1,.109-1.049.724.724,0,0,1-.016-.168,1.949,1.949,0,0,1,.036-.3.915.915,0,0,1,.093-.241c.025-.269.052-.539.1-.8a6.17,6.17,0,0,1,.255-1.208.757.757,0,0,1,.007-.082c-1.079.365-2.619-.4-2.482-1.683.03-.285.067-.569.107-.853l-.025.041a23.783,23.783,0,0,0-2.007,3.646,19.449,19.449,0,0,0-.7,2.416c-.092.37-.286,1.106-.286,1.106s.117-.654.164-.983c.1-.712.093-1.465.163-2.171.149-1.484.106-2.973.205-4.465a9.627,9.627,0,0,0-.246-3.727c-.339-1.016-1.322-2.4-2.621-1.885-.358.143-.467.664-.574.984a18.916,18.916,0,0,0-.533,2.908c-.646,3.875-.581,7.765-1.065,11.633a17.4,17.4,0,0,1-.614,3.277c-.058.173-.174.944-.369.983-.15.03-.391-.6-.41-.7a11.309,11.309,0,0,1,.082-3.031,20.96,20.96,0,0,0-.041-4.055c-.113-1.021.143-2.254-.327-3.2-.27-.539-1.3-2.205-2.089-1.68-1.014.676-.917,1.949-1.065,2.99a60.565,60.565,0,0,0-.943,8.561,53.743,53.743,0,0,0,.861,6.841,10.4,10.4,0,0,1-.123,2.376,25,25,0,0,0,.082,4.956c.134,1.342.276,2.68.41,4.014a12.09,12.09,0,0,1,.369,3.154c-.361,2.167-.5,4.4-.778,6.6-.213,1.706-.816,3.391-1.106,5.079-.047.271.38.494.533.7a5.94,5.94,0,0,0,2.294,1.556,12.392,12.392,0,0,0,3.891,1.106,11.439,11.439,0,0,0,3.646.41c1.233-.205,2.5-.106,3.563-.9.782-.587.423-2.027.533-2.909a16.883,16.883,0,0,1,2.049-6.349,9.253,9.253,0,0,1,2.13-2.293,30.3,30.3,0,0,0,3.6-3.851,28.745,28.745,0,0,0,4.26-7.373,21.566,21.566,0,0,0,2.007-5.653C701.4,526.841,702.163,524.933,701.825,523.245Z" transform="translate(-551.453 -181.688)" fill="#ffedde" fill-rule="evenodd"/>
    <path id="패스_1538" data-name="패스 1538" d="M665.357,649.409c5.388-4.993,8.858-7.861,8.858-7.861s.354,6.693.669,12.067.683,9.505.683,9.505l-.685,19.26a7.749,7.749,0,0,1,.1,2.3c-.2,4.659-.836,14.678-1.326,22.059-.329,4.951-.388,9.4-.374,12.428H761.91l-.85-17.955s2.7-.345,5.671-.733c2.947-.386,6.337-.773,9.2-2.127a9.22,9.22,0,0,0,4.367-3.84,24.354,24.354,0,0,0,1.741-8.273c.268-6.382-.59-13.972-1.278-21.8-.8-9.06-1.181-18.147-2.212-26.9-.669-5.671-2.009-11.642-2.556-15.886-.559-4.339-2.543-11.455-4.861-14.842-5.02-7.334-13.217-9-19.913-11.386a61.6,61.6,0,0,1-12.06-5.993l-.413-1.3-3.008-3.491s-1.524-2.9-2.14-3.9a7.31,7.31,0,0,0-2.277-1.755l.058,6.44-15.793,29.489-10.019-25.576-.508-6.65-1.77,1.252s-1.636,2.387-2.27,3.272a22.885,22.885,0,0,1-3.648,3.942,43.312,43.312,0,0,1-4.38,1.972c-1.834.714-4.035,1.337-6.49,2.183-4.719,1.625-9.757,2.44-15.7,7.624-4.349,3.8-9.056,10.238-12.984,15.287-8.182,10.518-14.272,18.979-14.272,18.979s-.042-4.492.04-6.655a5.826,5.826,0,0,0-.47-2.651L625.853,623.9l-1.687,1.427s-1.753,10.1-2.852,20.681c-1.135,10.936-.833,21.092,5.427,23.313,4.27,1.515,13.088-.213,20.417-4.62C653.865,660.664,660.272,654.122,665.357,649.409Z" transform="translate(-506.476 -248.245)" fill="#f7c667" fill-rule="evenodd"/>
    <path id="패스_1539" data-name="패스 1539" d="M1054.89,1332.572s-4.319-1.028-6.341-1.6c-2.818-.793-5.614-1.753-8.474-2.386-1.864-.413-3.851-.72-5.7-1.118-1.1-.238-2.178-.254-3.3-.414a20.672,20.672,0,0,1-3.374-.715,33.2,33.2,0,0,1-6.755-3.362,27.029,27.029,0,0,1-5.63-3.852c-1.756-1.778-2.127-5.323-2.2-7.182-.026-.628.026-2.534.026-2.534s1.228,1.587,1.464,1.876c1.155,1.409,2.082,3.276,3.621,4.267a9.859,9.859,0,0,0,3.228,1.388c.268.057,2.066.479,2.066.479s-6.031-2.353-5.208-3.948a1.986,1.986,0,0,1,1.235-.815,11.466,11.466,0,0,1,4.088-.165c1.668.245,4.814.953,6.495,1.107,3.823.353,5.9-.413,9.671.469a18.381,18.381,0,0,1,3.994,1.273c2.3,1.14,4.4,2.749,6.834,3.535.923.3,1.22.175,2.147.455.436.132,1.7.161,1.969.573,1.7,2.561,1.659,7.535,1.457,9.333A7.951,7.951,0,0,1,1054.89,1332.572Z" transform="translate(-846.728 -881.736)" fill="#ffedde" fill-rule="evenodd"/>
    <path id="패스_1540" data-name="패스 1540" d="M1316.735,1382.553l7.329.248s1.723,1.072,2.23,4.741a45.014,45.014,0,0,1,.288,7.477,8.075,8.075,0,0,1-.536,2.662,51.418,51.418,0,0,1-6.5-.416,13.991,13.991,0,0,1-3.832-1.071l1.75-.28a15.474,15.474,0,0,0,1.321-6.536,18.137,18.137,0,0,0-.99-4.841A6.792,6.792,0,0,0,1316.735,1382.553Z" transform="translate(-1109.173 -945.17)" fill="#fff" fill-rule="evenodd"/>
    <path id="패스_1541" data-name="패스 1541" d="M1243.713,595.182l.648,3.807a12.367,12.367,0,0,0,2.848,3.214c1.342,1.049,3.616,2.216,4.44,3.42.92,1.344.869,4.733,1.217,7.335a32.557,32.557,0,0,0,1.4,5.6,17.67,17.67,0,0,0,1.718-5.336c.637-3.687.483-5.5,1.329-6.887.795-1.3,1.814-1.716,3.068-2.505,1.653-1.04,3.667-2.333,5.19-3.523a18.344,18.344,0,0,0,4.4-5.612l-.138-3.614a4.349,4.349,0,0,1,1.481,2.272c.268,1.342,1.37,4.619,1.37,4.619a37.348,37.348,0,0,1-.761,6.775,138.123,138.123,0,0,1-8,24.36c-6.218,14.771-12.435,32.988-12.435,32.988a319.6,319.6,0,0,1-6.732-31.641c-1.473-9.729-2.487-19.09-2.82-25.042a46.654,46.654,0,0,1,.03-6.227Z" transform="translate(-1045.109 -258.74)" fill="#fff" fill-rule="evenodd"/>
    <path id="패스_1542" data-name="패스 1542" d="M653.893,860.762l-.661,4.671a11.59,11.59,0,0,0,2.183,1.708,13.686,13.686,0,0,0,4.579,1.537,16.362,16.362,0,0,0,7.661-1.019l.818-3.924s.7-.275.667,2.814c-.016,1.554-.284,3.609-.47,5.575-.183,1.941-.323,4.022-.323,4.022a8.681,8.681,0,0,1-2.478,1.817,14.461,14.461,0,0,1-8.158,1.541c-4.5-.813-7.384-6.664-7.384-6.664a89.173,89.173,0,0,1,1.754-9.539C652.971,860.279,653.893,860.762,653.893,860.762Z" transform="translate(-532.086 -492.604)" fill="#fff" fill-rule="evenodd"/>
    <path id="패스_1543" data-name="패스 1543" d="M1282.073,528.968a37.6,37.6,0,0,0,5.175.665,38.91,38.91,0,0,0,5.27-.163s-.635,3.22-2.57,4.326-3.247,1.439-5.172.1S1282.073,528.968,1282.073,528.968Z" transform="translate(-1079.992 -204.868)" fill="#fff" fill-rule="evenodd"/>
    <path id="패스_1544" data-name="패스 1544" d="M1189.467,173.188c1.363-.98,3.976-1.171,6.663-1.943,3.262-.937,5.429-2.272,8.59-2.3a21.441,21.441,0,0,1,6.515,1.386c1.815.982,3.813,2.777,6.176,4.073a20.325,20.325,0,0,1,5.124,3.966,9.658,9.658,0,0,1,2.277,3.644,20.834,20.834,0,0,1,1.385,7.666,43.48,43.48,0,0,1-3.2,13.9,11.465,11.465,0,0,1-5.311-1.351,24.32,24.32,0,0,1-5.311-4.426s-4.135.81-7.343-1.221c-4.768-3.018-2.581-11.435-5.887-11.45-1.614-.008-3.625.715-4.312,1.939-1.136,2.027-.51,5.269-2.184,7.664-1.269,1.816-4.405,2.322-4.405,2.322a19.763,19.763,0,0,1-2.376,4.193,7.378,7.378,0,0,1-2.841,2.143s-2.221-7.788-1.47-14.4C1182.363,181.87,1185.819,175.811,1189.467,173.188Z" transform="translate(-992.678 107.373)" fill="#e29b80" fill-rule="evenodd"/>
    <path id="패스_1545" data-name="패스 1545" d="M957.965,1208.4l43.531.416a6.019,6.019,0,0,1,2.626.824,25.909,25.909,0,0,1,2.233,2.093l14.259,18.507a75.33,75.33,0,0,0-8.008.453,12.4,12.4,0,0,0-2.48,1.148l-5.6-.505s-.093.649-.672.576c-5.714-.725-8.748-4.948-15-5.544-3.559-.339-5.945-.056-8.987-.291-2.973-.23-5.649-1.245-7.6-1.227-4.533.042-4.444,1.545-3.136,2.681a13.4,13.4,0,0,0,3.961,1.963,12.039,12.039,0,0,1-3.32-.713,13.33,13.33,0,0,1-2.474-1.486,58.921,58.921,0,0,0-3.476-4.93c-2.672-3.477-6.678-8.306-8.149-10.7C954.655,1210.023,957.965,1208.4,957.965,1208.4Z" transform="translate(-796.737 -794.13)" fill="#8e9ea9" fill-rule="evenodd"/>
    <g id="그룹_16033" data-name="그룹 16033" transform="translate(224.302 323.264)">
      <path id="패스_1546" data-name="패스 1546" d="M1450.005,535.709a.348.348,0,0,1-.346-.319,77.018,77.018,0,0,1,.286-12.406.341.341,0,0,1,.374-.32.348.348,0,0,1,.32.373,76.519,76.519,0,0,0-.288,12.3.347.347,0,0,1-.318.375Z" transform="translate(-1449.51 -522.663)" fill="#5b2714"/>
    </g>
    <g id="그룹_16034" data-name="그룹 16034" transform="translate(198.249 332.107)">
      <path id="패스_1547" data-name="패스 1547" d="M1254.126,597.683a.348.348,0,0,1-.346-.312c-.325-3.217-.627-6.912-.577-7.749a.355.355,0,0,1,.368-.326.348.348,0,0,1,.326.368c-.041.683.211,4.038.575,7.637a.348.348,0,0,1-.311.381Z" transform="translate(-1253.198 -589.296)" fill="#5b2714"/>
    </g>
    <g id="그룹_16035" data-name="그룹 16035" transform="translate(166.321 436.8)">
      <path id="패스_1548" data-name="패스 1548" d="M1013.315,1412.288c.042-4.567.4-9.845.8-15.745.371-5.472.791-11.673.983-18.017a.348.348,0,0,0-.337-.359.365.365,0,0,0-.358.337c-.192,6.331-.612,12.526-.982,17.992-.4,5.913-.758,11.2-.8,15.792Z" transform="translate(-1012.62 -1378.167)" fill="#5b2714"/>
    </g>
    <g id="그룹_16036" data-name="그룹 16036" transform="translate(254.232 452.865)">
      <path id="패스_1549" data-name="패스 1549" d="M1675.914,1517.268h.7c-.167-4.062-.34-7.268-.509-10.391-.132-2.437-.258-4.767-.37-7.333a.363.363,0,0,0-.363-.333.349.349,0,0,0-.333.363c.113,2.569.239,4.9.371,7.34C1675.575,1510.027,1675.748,1513.223,1675.914,1517.268Z" transform="translate(-1675.036 -1499.211)" fill="#5b2714"/>
    </g>
    <g id="그룹_16037" data-name="그룹 16037" transform="translate(164.071 369.142)">
      <path id="패스_1550" data-name="패스 1550" d="M1000.5,913.766a.348.348,0,0,1-.346-.321c-.442-5.843-.656-10.7-.845-14.987-.451-10.227-.776-17.616-3.632-29.673a.347.347,0,0,1,.676-.16c2.871,12.122,3.2,19.538,3.65,29.8.189,4.281.4,9.134.844,14.965a.348.348,0,0,1-.32.373Z" transform="translate(-995.667 -868.357)" fill="#5b2714"/>
    </g>
    <g id="그룹_16038" data-name="그룹 16038" transform="translate(139.278 342.257)">
      <path id="패스_1551" data-name="패스 1551" d="M809.194,709.571a.348.348,0,0,1-.279-.555l.383-.515c8.693-11.689,20.6-27.7,25.109-31.26,4.757-3.755,11.1-5.844,18.909-8.186a33.93,33.93,0,0,0,7.106-3.22.348.348,0,1,1,.38.582,34.8,34.8,0,0,1-7.287,3.3c-7.732,2.32-14.017,4.387-18.678,8.066-4.439,3.506-16.8,20.129-24.982,31.129l-.382.515A.347.347,0,0,1,809.194,709.571Z" transform="translate(-808.847 -665.778)" fill="#5b2714"/>
    </g>
    <g id="그룹_16039" data-name="그룹 16039" transform="translate(212.975 428.785)">
      <path id="패스_1552" data-name="패스 1552" d="M1364.508,1326.9a.348.348,0,0,1-.2-.634c1.432-.989,3.686-1.125,6.805-1.312a68.09,68.09,0,0,0,10.31-1.228,116.657,116.657,0,0,0,14.042-3.75c1.314-.424,2.673-.862,4.185-1.314a25.748,25.748,0,0,1,14.454.324.348.348,0,0,1-.22.66,25,25,0,0,0-14.035-.318c-1.505.45-2.86.887-4.171,1.309a117.189,117.189,0,0,1-14.114,3.769,68.639,68.639,0,0,1-10.41,1.242c-3.007.181-5.179.312-6.452,1.19A.344.344,0,0,1,1364.508,1326.9Z" transform="translate(-1364.161 -1317.774)" fill="#5b2714"/>
    </g>
    <g id="그룹_16040" data-name="그룹 16040" transform="translate(206.245 436.907)">
      <path id="패스_1553" data-name="패스 1553" d="M1321.021,1380.17a31.089,31.089,0,0,1-3.845-.3c-1.431-.178-2.781-.345-3.137.011a.347.347,0,0,1-.492-.491c.6-.6,1.9-.435,3.714-.209a24.746,24.746,0,0,0,4.893.257.347.347,0,0,1,.054.693C1321.812,1380.156,1321.415,1380.17,1321.021,1380.17Z" transform="translate(-1313.446 -1378.971)" fill="#5b2714"/>
    </g>
    <g id="그룹_16041" data-name="그룹 16041" transform="translate(171.216 430.315)">
      <path id="패스_1554" data-name="패스 1554" d="M1065.172,1337.664a.347.347,0,0,1-.207-.069c-1.293-.964-3.073-1.234-4.958-1.519a16.406,16.406,0,0,1-4.277-1.039c-.677-.307-1.364-.591-2.019-.863-2.281-.946-4.084-1.693-4.2-2.8a1.418,1.418,0,0,1,.435-1.2c1.281-1.24,4.917-.785,4.953-.779,1.062.145,2.073.343,3.052.534a28.1,28.1,0,0,0,5.542.7h.03l.946,0a31.668,31.668,0,0,1,9.687,1.071,14.164,14.164,0,0,1,3.609,1.782,18.083,18.083,0,0,0,5.579,2.527,18.555,18.555,0,0,0,2.664.416.348.348,0,0,1-.064.693,19.3,19.3,0,0,1-2.766-.434,18.669,18.669,0,0,1-5.78-2.61,13.629,13.629,0,0,0-3.433-1.7,31.011,31.011,0,0,0-9.492-1.045l-.95,0h-.031a28.606,28.606,0,0,1-5.675-.71c-.969-.189-1.971-.384-3.013-.527s-3.572-.188-4.375.59a.718.718,0,0,0-.227.633c.073.7,1.955,1.48,3.774,2.234.661.274,1.355.562,2.04.872a15.935,15.935,0,0,0,4.094.985c1.886.286,3.837.581,5.269,1.648a.348.348,0,0,1-.208.627Z" transform="translate(-1049.503 -1329.299)" fill="#5b2714"/>
    </g>
    <g id="그룹_16042" data-name="그룹 16042" transform="translate(158.509 415.273)">
      <path id="패스_1555" data-name="패스 1555" d="M1017.264,1237.133a.348.348,0,0,1-.275-.134l-.183-.236-13.352-17.275h0a13.636,13.636,0,0,0-1.9-1.782,4.363,4.363,0,0,0-2.3-.656l-43.054-.392c-.472-.025-1.284.058-1.531.38-.3.392-.353.825.323,1.779,1.648,2.327,11.268,14.881,11.366,15.009a.347.347,0,0,1-.552.422c-.1-.126-9.725-12.691-11.381-15.029-.548-.773-1.013-1.688-.306-2.6.547-.713,1.945-.659,2.1-.651l43.029.391a5.042,5.042,0,0,1,2.708.786,14.085,14.085,0,0,1,2.038,1.908l13.548,17.526a.348.348,0,0,1-.275.561Z" transform="translate(-953.754 -1215.958)" fill="#5b2714"/>
    </g>
    <g id="그룹_16043" data-name="그룹 16043" transform="translate(169.638 432.589)">
      <path id="패스_1556" data-name="패스 1556" d="M1045.85,1350.137h-.015c-2.163-.092-4.723-1.062-8.054-3.055a.347.347,0,1,1,.356-.6c3.185,1.9,5.712,2.87,7.727,2.956a.348.348,0,0,1-.014.7Z" transform="translate(-1037.612 -1346.436)" fill="#5b2714"/>
    </g>
    <g id="그룹_16044" data-name="그룹 16044" transform="translate(166 427.339)">
      <path id="패스_1557" data-name="패스 1557" d="M1052.187,1330.6a.34.34,0,0,1-.068-.007c-1.257-.249-1.989-.435-2.592-.6l-3.072-.84c-3.794-1.039-7.717-2.113-10.543-2.833a49.1,49.1,0,0,0-5.265-.938,40.127,40.127,0,0,1-6.589-1.31,22.811,22.811,0,0,1-5.562-3c-.8-.532-1.627-1.082-2.453-1.562l-.241-.14c-1.97-1.141-3.527-2.042-4.445-4.076a17.066,17.066,0,0,1-.981-4.849c-.036-.33-.072-.659-.111-.982a6.51,6.51,0,0,1,0-1.876l.044-.406a.348.348,0,0,1,.692.071l-.046.415a5.9,5.9,0,0,0,0,1.716c.039.326.075.657.111.989a16.643,16.643,0,0,0,.923,4.638c.826,1.831,2.224,2.64,4.159,3.76l.242.14c.845.49,1.681,1.046,2.489,1.584a22.285,22.285,0,0,0,5.388,2.915,39.554,39.554,0,0,0,6.475,1.284,49.486,49.486,0,0,1,5.34.953c2.831.722,6.758,1.8,10.555,2.836l3.071.84c.59.162,1.307.344,2.543.589a.348.348,0,0,1-.067.688Z" transform="translate(-1010.199 -1306.874)" fill="#5b2714"/>
    </g>
    <g id="그룹_16045" data-name="그룹 16045" transform="translate(204.938 449.988)">
      <path id="패스_1558" data-name="패스 1558" d="M1314.455,1480.34c-3.08,0-10.13-.92-10.821-2.3a.348.348,0,0,1,.622-.311c.5,1,9.275,2.277,11.214,1.854a.347.347,0,0,1,.148.679A6.116,6.116,0,0,1,1314.455,1480.34Z" transform="translate(-1303.597 -1477.535)" fill="#5b2714"/>
    </g>
    <g id="그룹_16046" data-name="그룹 16046" transform="translate(213.874 340.779)">
      <path id="패스_1559" data-name="패스 1559" d="M1376.023,769.617a20.171,20.171,0,0,1-4.849-.362.348.348,0,0,1,.214-.661c4.276,1.392,40.928-2.016,46.122-2.777,8.291-1.212,14.839-2.17,14.75-14.919-.042-5.865-.707-16.392-2.035-32.183-1.218-14.479-2.242-23.516-4.764-35.709-2.635-12.733-9.189-16.259-16.247-19.012-1.467-.572-3-1.131-4.486-1.672-5.244-1.91-10.666-3.886-14.988-7.051a.348.348,0,0,1,.411-.561c4.241,3.106,9.616,5.065,14.814,6.958,1.488.542,3.026,1.1,4.5,1.678,7.244,2.825,13.97,6.444,16.675,19.519,2.53,12.228,3.556,21.284,4.776,35.791,1.33,15.809,2,26.353,2.038,32.236.092,13.355-7.062,14.4-15.345,15.613C1414.183,767.006,1387.571,769.617,1376.023,769.617Z" transform="translate(-1370.934 -654.644)" fill="#5b2714"/>
    </g>
    <g id="그룹_16047" data-name="그룹 16047" transform="translate(245.531 384.418)">
      <path id="패스_1560" data-name="패스 1560" d="M1614.922,1024.592a.348.348,0,0,1-.334-.25c-1.581-5.453-1.833-9.528-2.183-15.167-.112-1.807-.239-3.856-.425-6.122-.57-6.951-1.456-12.544-2.1-16.628-.146-.919-.281-1.773-.4-2.564a.348.348,0,0,1,.687-.1c.119.79.254,1.642.4,2.559.649,4.1,1.538,9.7,2.109,16.681.187,2.274.314,4.326.427,6.136.347,5.6.6,9.638,2.157,15.017a.347.347,0,0,1-.334.445Z" transform="translate(-1609.472 -983.461)" fill="#5b2714"/>
    </g>
    <g id="그룹_16048" data-name="그룹 16048" transform="translate(192.389 318.187)">
      <path id="패스_1561" data-name="패스 1561" d="M1224.325,503.49h-.023c-5.976-.013-10.072-5.23-11.982-8.34a23.974,23.974,0,0,1-3.138-9.506l-.134-.827a.348.348,0,0,1,.686-.115l.135.832a23.393,23.393,0,0,0,3.043,9.251c1.834,2.986,5.754,8,11.392,8.008h.022c4.672,0,11.376-3.3,14.622-9.425a.347.347,0,1,1,.614.325C1236.188,500.062,1229.2,503.49,1224.325,503.49Z" transform="translate(-1209.044 -484.413)" fill="#5b2714"/>
    </g>
    <g id="그룹_16049" data-name="그룹 16049" transform="translate(225.611 310.511)">
      <path id="패스_1562" data-name="패스 1562" d="M1459.724,437.927a.348.348,0,0,1-.01-.7,4.361,4.361,0,0,0,3.226-1.722,8.8,8.8,0,0,0,2.032-5.645,2.877,2.877,0,0,0-1.354-2.4,1.945,1.945,0,0,0-1.8.04.348.348,0,0,1-.326-.614,2.643,2.643,0,0,1,2.443-.044,3.527,3.527,0,0,1,1.724,2.924,9.461,9.461,0,0,1-2.191,6.187,5.09,5.09,0,0,1-3.735,1.968Z" transform="translate(-1459.376 -426.569)" fill="#5b2714"/>
    </g>
    <g id="그룹_16050" data-name="그룹 16050" transform="translate(204.967 311.59)">
      <path id="패스_1563" data-name="패스 1563" d="M1305.3,442.914a.346.346,0,0,1-.25-.106,3.308,3.308,0,0,1-1.161-3.042,3.6,3.6,0,0,1,.807-1.23,4.149,4.149,0,0,0,.6-.8,4.214,4.214,0,0,0,.13-2.606.347.347,0,1,1,.677-.158,5,5,0,0,1-.185,3.075,4.748,4.748,0,0,1-.7.947,3.072,3.072,0,0,0-.668.98,2.755,2.755,0,0,0,1,2.352.348.348,0,0,1-.25.59Z" transform="translate(-1303.821 -434.701)" fill="#5b2714"/>
    </g>
    <path id="패스_1564" data-name="패스 1564" d="M1252.1,435.066a1.216,1.216,0,1,1,1.077,1.534A1.334,1.334,0,0,1,1252.1,435.066Z" transform="translate(-1053.988 -122.262)" fill="#5b2714" fill-rule="evenodd"/>
    <g id="그룹_16051" data-name="그룹 16051" transform="translate(212.295 307.655)">
      <path id="패스_1565" data-name="패스 1565" d="M1365.8,406.784a.345.345,0,0,1-.2-.062,7.268,7.268,0,0,0-6.071-.558.347.347,0,1,1-.3-.627,7.958,7.958,0,0,1,6.767.613.348.348,0,0,1-.2.633Z" transform="translate(-1359.034 -405.05)" fill="#5b2714"/>
    </g>
    <g id="그룹_16052" data-name="그룹 16052" transform="translate(190.078 278.999)">
      <path id="패스_1566" data-name="패스 1566" d="M1191.98,197.08a.348.348,0,0,1-.113-.677c1.138-.388,2.052-1.569,3.02-2.82,1.748-2.259,3.727-4.824,7.864-4.414a.348.348,0,0,1-.068.692c-3.751-.369-5.528,1.927-7.246,4.147-1.033,1.335-2.01,2.6-3.345,3.052A.343.343,0,0,1,1191.98,197.08Z" transform="translate(-1191.633 -189.127)" fill="#5b2714"/>
    </g>
    <g id="그룹_16053" data-name="그룹 16053" transform="translate(188.487 288.303)">
      <path id="패스_1567" data-name="패스 1567" d="M1181.458,281.83a.347.347,0,0,1-.339-.273c-2.366-10.821-1.864-19.131,1.345-22.228a.348.348,0,1,1,.483.5c-3.033,2.928-3.463,11-1.148,21.579a.347.347,0,0,1-.265.414A.354.354,0,0,1,1181.458,281.83Z" transform="translate(-1179.643 -259.231)" fill="#5b2714"/>
    </g>
    <g id="그룹_16054" data-name="그룹 16054" transform="translate(205.353 276)">
      <path id="패스_1568" data-name="패스 1568" d="M1327.834,173.261c-1.718,0-3-1.063-4.463-2.275a15.064,15.064,0,0,0-4.492-2.851c-3.847-1.407-8.733-1.171-11.622.561a.348.348,0,0,1-.358-.6c3.054-1.831,8.194-2.091,12.219-.618a15.643,15.643,0,0,1,4.7,2.969c1.555,1.29,2.78,2.309,4.5,2.084a.347.347,0,1,1,.09.689A4.361,4.361,0,0,1,1327.834,173.261Z" transform="translate(-1306.731 -166.53)" fill="#5b2714"/>
    </g>
    <g id="그룹_16055" data-name="그룹 16055" transform="translate(229.249 285.452)">
      <path id="패스_1569" data-name="패스 1569" d="M1487.922,263.754a.348.348,0,0,1-.324-.474c4.366-11.22,4.1-20.77-.7-24.921a.348.348,0,0,1,.455-.526c5.025,4.349,5.365,14.2.889,25.7A.348.348,0,0,1,1487.922,263.754Z" transform="translate(-1486.781 -237.749)" fill="#5b2714"/>
    </g>
    <g id="그룹_16056" data-name="그룹 16056" transform="translate(226.856 315.208)">
      <path id="패스_1570" data-name="패스 1570" d="M1469.1,464.189a.349.349,0,0,1-.317-.491,5.555,5.555,0,0,1,1.19-1.642.348.348,0,0,1,.464.517,4.919,4.919,0,0,0-1.021,1.412A.348.348,0,0,1,1469.1,464.189Z" transform="translate(-1468.757 -461.966)" fill="#5b2714"/>
    </g>
    <path id="패스_1571" data-name="패스 1571" d="M1371.666,442.448a1.216,1.216,0,1,1,1.087,1.525A1.334,1.334,0,0,1,1371.666,442.448Z" transform="translate(-1157.691 -128.657)" fill="#5b2714" fill-rule="evenodd"/>
    <g id="그룹_16057" data-name="그룹 16057" transform="translate(195.812 306.893)">
      <path id="패스_1572" data-name="패스 1572" d="M1241.469,400.864a.345.345,0,0,1-.208-.069c-1.243-.929-4.128-1.062-5.936-.272a.348.348,0,1,1-.278-.638c2.035-.888,5.2-.72,6.631.353a.348.348,0,0,1-.208.626Z" transform="translate(-1234.838 -399.313)" fill="#5b2714"/>
    </g>
    <g id="그룹_16058" data-name="그룹 16058" transform="translate(192.412 301.902)">
      <path id="패스_1573" data-name="패스 1573" d="M1209.566,367.858a.348.348,0,0,1-.192-.638,8.018,8.018,0,0,0,3.044-5.222.348.348,0,0,1,.686.11,8.738,8.738,0,0,1-3.348,5.692A.348.348,0,0,1,1209.566,367.858Z" transform="translate(-1209.218 -361.706)" fill="#5b2714"/>
    </g>
    <g id="그룹_16059" data-name="그룹 16059" transform="translate(198.015 292.658)">
      <path id="패스_1574" data-name="패스 1574" d="M1251.787,303.271a.348.348,0,0,1-.13-.67c1.771-.711,2.644-3.588,2.779-5.234l.025-.309c.159-2.016.324-4.1,2.708-4.983a.347.347,0,1,1,.241.652c-1.967.728-2.1,2.423-2.255,4.386l-.025.311c-.107,1.3-.892,4.89-3.213,5.823A.349.349,0,0,1,1251.787,303.271Z" transform="translate(-1251.439 -292.052)" fill="#5b2714"/>
    </g>
    <g id="그룹_16060" data-name="그룹 16060" transform="translate(205.98 289.439)">
      <path id="패스_1575" data-name="패스 1575" d="M1320.746,284.033a.383.383,0,0,1-.052,0,7.59,7.59,0,0,1-5.307-3.876,19.106,19.106,0,0,1-1.636-6.537c-.278-2.357-.5-4.219-2.124-5.172a.347.347,0,1,1,.351-.6c1.924,1.128,2.174,3.242,2.463,5.691a18.521,18.521,0,0,0,1.571,6.311,6.943,6.943,0,0,0,4.784,3.5.348.348,0,0,1-.05.691Z" transform="translate(-1311.455 -267.797)" fill="#5b2714"/>
    </g>
    <g id="그룹_16061" data-name="그룹 16061" transform="translate(217.015 300.438)">
      <path id="패스_1576" data-name="패스 1576" d="M1404.737,359.107h-.005c-4.216-.068-9.291-3.31-10.127-8.027a.348.348,0,0,1,.684-.122c.776,4.38,5.515,7.39,9.454,7.453a.348.348,0,0,1-.005.7Z" transform="translate(-1394.599 -350.671)" fill="#5b2714"/>
    </g>
    <g id="그룹_16062" data-name="그룹 16062" transform="translate(201.797 323.827)">
      <path id="패스_1577" data-name="패스 1577" d="M1285.528,533.192c-.169,0-.342-.008-.522-.025-4.287-.409-5.06-5.808-5.067-5.862a.346.346,0,0,1,.1-.294.341.341,0,0,1,.3-.1c.033,0,3.319.5,5.033.582a25.739,25.739,0,0,0,5.085-.236.343.343,0,0,1,.3.1.348.348,0,0,1,.1.3C1290.848,527.717,1289.885,533.192,1285.528,533.192Zm-4.81-5.518c.28,1.23,1.31,4.511,4.354,4.8,3.415.322,4.652-3.158,4.992-4.455a27.859,27.859,0,0,1-4.727.171C1283.969,528.128,1281.708,527.817,1280.718,527.673Z" transform="translate(-1279.935 -526.91)" fill="#5b2714"/>
    </g>
    <g id="그룹_16063" data-name="그룹 16063" transform="translate(189.086 309.891)">
      <path id="패스_1578" data-name="패스 1578" d="M1187.825,432.449a.346.346,0,0,1-.072-.007,3.552,3.552,0,0,1-2.215-1.819,10.194,10.194,0,0,1-1.228-6.563,2.7,2.7,0,0,1,2.746-2.144.348.348,0,0,1-.156.677,2.072,2.072,0,0,0-1.92,1.653,9.532,9.532,0,0,0,1.153,6.015,3.032,3.032,0,0,0,1.765,1.5.348.348,0,0,1-.072.688Z" transform="translate(-1184.16 -421.898)" fill="#5b2714"/>
    </g>
    <g id="그룹_16064" data-name="그룹 16064" transform="translate(158.73 413.993)">
      <path id="패스_1579" data-name="패스 1579" d="M1020.326,1228.549a.346.346,0,0,1-.276-.137l-.4-.517-14.015-18.061h0a13.632,13.632,0,0,0-1.9-1.782,4.33,4.33,0,0,0-2.3-.656l-43.055-.391c-.931.039-1.469.217-2.306,1.682a.348.348,0,1,1-.6-.345c.945-1.657,1.718-1.984,2.9-2.033l43.062.391a5.054,5.054,0,0,1,2.708.786,14.1,14.1,0,0,1,2.038,1.907l14.431,18.6a.347.347,0,0,1-.066.487A.342.342,0,0,1,1020.326,1228.549Z" transform="translate(-955.42 -1206.31)" fill="#5b2714"/>
    </g>
    <g id="그룹_16065" data-name="그룹 16065" transform="translate(136.607 381.169)">
      <path id="패스_1580" data-name="패스 1580" d="M789.225,987.065a.343.343,0,0,1-.078-.009.347.347,0,0,1-.261-.416,32.129,32.129,0,0,0,.5-13.33,63.731,63.731,0,0,1-.475-14,.348.348,0,0,1,.694.047,63.1,63.1,0,0,0,.471,13.868,32.7,32.7,0,0,1-.508,13.573A.348.348,0,0,1,789.225,987.065Z" transform="translate(-788.727 -958.982)" fill="#5b2714"/>
    </g>
    <g id="그룹_16066" data-name="그룹 16066" transform="translate(135.992 371.118)">
      <path id="패스_1581" data-name="패스 1581" d="M784.44,895.7a.348.348,0,0,1-.348-.341,46.318,46.318,0,0,1,.384-5.719c.273-2.531.532-4.922.011-5.882a.348.348,0,1,1,.611-.331c.624,1.151.367,3.532.069,6.288a45.783,45.783,0,0,0-.38,5.631.348.348,0,0,1-.341.354Z" transform="translate(-784.089 -883.246)" fill="#5b2714"/>
    </g>
    <g id="그룹_16067" data-name="그룹 16067" transform="translate(135.258 339.196)">
      <path id="패스_1582" data-name="패스 1582" d="M793.728,644.518a1.821,1.821,0,0,0-1.463-.549,2.493,2.493,0,0,0-1.407.708,1.113,1.113,0,0,1-.1.1,6.439,6.439,0,0,0-.815.987,7.508,7.508,0,0,0-1.269,3.352,6.027,6.027,0,0,1-.638,2.081c-.787,1.41-1.644,2.787-2.7,2.8h-.008c-.905,0-1.021-1.8-1.035-2.156-.137-3.609.285-6.289,1.278-8.187a8.021,8.021,0,0,0,.17-.821.314.314,0,0,0-.072-.062.347.347,0,0,0-.477.119c-1.631,2.708-1.69,6.421-1.593,8.978.07,1.8.7,2.824,1.728,2.824h.017c1.428-.016,2.413-1.568,3.3-3.156a6.667,6.667,0,0,0,.716-2.3,6.827,6.827,0,0,1,1.158-3.077c.631-.921,1.261-1.438,1.821-1.493a1.145,1.145,0,0,1,.88.318,12.176,12.176,0,0,1-.225,2.753c-.073.53-.15,1.082-.211,1.611l-.025.22a11.153,11.153,0,0,1-.78,3.46c-.449.987-.751,1.719-1.1,2.565-.277.671-.587,1.424-1.032,2.454a24.107,24.107,0,0,1-5.709,7.551,20.6,20.6,0,0,0-3.237,3.737c-.727,1.227-1.761,4.69-2.332,8.936a.347.347,0,0,0,.3.39.26.26,0,0,0,.046,0,.348.348,0,0,0,.344-.3,29.477,29.477,0,0,1,2.241-8.674,19.83,19.83,0,0,1,3.129-3.6,24.672,24.672,0,0,0,5.857-7.769c.447-1.034.759-1.79,1.037-2.464.347-.84.646-1.567,1.09-2.543a11.693,11.693,0,0,0,.838-3.669l.025-.219c.06-.524.136-1.07.209-1.6C793.981,645.634,794.058,644.838,793.728,644.518Z" transform="translate(-778.56 -642.717)" fill="#5b2714"/>
    </g>
    <g id="그룹_16068" data-name="그룹 16068" transform="translate(131.256 319.432)">
      <path id="패스_1583" data-name="패스 1583" d="M753.833,510.442c.039-.527.09-.983.151-1.408a2.231,2.231,0,0,1,.036-.277.45.45,0,0,1,.015-.057c.06-.379.128-.74.2-1.111a6.963,6.963,0,0,1,.189-.97c.187-.98.387-2.152.57-3.931.419-4.084-.657-5.076-1.8-5.741a.879.879,0,0,0-.833-.062c-.68.307-1.158,1.512-1.649,4.159l-.051.271a23.866,23.866,0,0,1-1.4,5.212,13.255,13.255,0,0,0-.667,4.505c-.034.9-.073,1.919-.189,3.1a.358.358,0,0,0,.712.068c.118-1.2.157-2.235.192-3.144a12.756,12.756,0,0,1,.62-4.277,24.466,24.466,0,0,0,1.436-5.338l.05-.271c.516-2.779.961-3.514,1.242-3.642.026-.012.071-.032.172.027.784.458,1.856,1.085,1.448,5.059a44.054,44.054,0,0,1-.685,4.509,24.427,24.427,0,0,0-.476,3.265c-.111,1.52.046,6.6.785,7.652a.36.36,0,0,0,.5.089.352.352,0,0,0,.09-.493C753.958,516.875,753.7,512.222,753.833,510.442Z" transform="translate(-748.407 -496.809)" fill="#5b2714"/>
    </g>
    <g id="그룹_16069" data-name="그룹 16069" transform="translate(137.073 320.605)">
      <path id="패스_1584" data-name="패스 1584" d="M797.519,521.768a4.737,4.737,0,0,0,.124-1.034v0a32.714,32.714,0,0,1-.082-4.712,23.629,23.629,0,0,1,.5-3.115,44.276,44.276,0,0,0,.741-4.476c.466-4-.565-4.99-1.663-5.659a.847.847,0,0,0-.808-.072c-.665.292-1.147,1.467-1.662,4.057l-.053.265a23.606,23.606,0,0,1-1.435,5.093,13.123,13.123,0,0,0-.713,4.411c-.033.636-.071,1.334-.137,2.108a.584.584,0,0,1-.012.135v0a.583.583,0,0,1-.013.134c0,.014,0,.029,0,.043a.582.582,0,0,1-.012.128c-.015.155-.031.312-.048.473a.357.357,0,0,0,.194.368.348.348,0,0,0,.495-.276c.132-1.18.185-2.191.232-3.082a12.625,12.625,0,0,1,.664-4.188,24.18,24.18,0,0,0,1.472-5.217l.053-.265c.542-2.719.984-3.434,1.26-3.556.026-.011.07-.03.167.029.755.46,1.788,1.091,1.334,4.985a43.69,43.69,0,0,1-.73,4.415,24.2,24.2,0,0,0-.51,3.2,33.581,33.581,0,0,0,.179,5.724.918.918,0,0,1,.393.11C797.467,521.783,797.493,521.775,797.519,521.768Z" transform="translate(-792.237 -502.627)" fill="#5b2714"/>
    </g>
    <g id="그룹_16070" data-name="그룹 16070" transform="translate(120.889 320.445)">
      <path id="패스_1585" data-name="패스 1585" d="M670.637,553.856a.368.368,0,0,1-.076-.008.348.348,0,0,1-.263-.415,70.487,70.487,0,0,0,1.316-7.323,38.442,38.442,0,0,0,.064-8.318l-.034-.41a45.466,45.466,0,0,1,.019-5.422c.061-1.445.125-2.939.073-4.3a24.708,24.708,0,0,0-.406-3.425,17.941,17.941,0,0,1-.342-4.6c.117-1.8.266-2.794.423-3.849.076-.506.154-1.031.233-1.67.065-.522.093-1.144.121-1.745.086-1.87.167-3.636,1.242-3.922a1.44,1.44,0,0,1,1.222.173c.587.4.957,1.274,1.131,2.683a43.332,43.332,0,0,1,.217,6.766c0,.039-.009.133-.021.268a10.657,10.657,0,0,0-.034,3.007c.7-.354.808-2.439.928-4.832.024-.479.049-.98.08-1.5a33.363,33.363,0,0,1,.494-4.385c.126-.738.268-1.574.439-2.92.029-.228.053-.583.082-1.007.148-2.146.337-4.127,1.011-4.791a1.675,1.675,0,0,1,1.783-.381c.55.216,1.487.933,1.59,3.3a59.793,59.793,0,0,1-.322,8.614c-.345,3.529-.271,6.987.166,7.709a.348.348,0,0,1-.595.36c-.668-1.106-.523-5.472-.263-8.137a59.1,59.1,0,0,0,.32-8.516c-.063-1.445-.482-2.425-1.15-2.687a.977.977,0,0,0-1.04.229c-.542.534-.713,3.013-.806,4.344-.031.441-.056.811-.086,1.046-.172,1.361-.316,2.2-.443,2.949a32.455,32.455,0,0,0-.485,4.309c-.031.516-.056,1.015-.08,1.492-.16,3.178-.265,5.278-1.631,5.526a.5.5,0,0,1-.428-.125c-.3-.272-.451-1-.222-3.67.01-.119.018-.2.019-.236a42.681,42.681,0,0,0-.212-6.654c-.181-1.471-.552-2-.83-2.192a.752.752,0,0,0-.654-.076c-.582.155-.665,1.962-.726,3.282-.028.615-.057,1.25-.125,1.8-.079.646-.158,1.175-.235,1.687-.155,1.041-.3,2.024-.417,3.792a17.37,17.37,0,0,0,.334,4.437,25.227,25.227,0,0,1,.415,3.515c.053,1.387-.011,2.9-.073,4.354a44.986,44.986,0,0,0-.02,5.337l.034.409a39.07,39.07,0,0,1-.066,8.458,71.163,71.163,0,0,1-1.328,7.391A.348.348,0,0,1,670.637,553.856Z" transform="translate(-670.289 -501.424)" fill="#5b2714"/>
    </g>
    <g id="그룹_16071" data-name="그룹 16071" transform="translate(117.96 369.306)">
      <path id="패스_1586" data-name="패스 1586" d="M648.569,880.714a.341.341,0,0,1-.044,0,.348.348,0,0,1-.3-.389,56.774,56.774,0,0,1,2.039-10.5.348.348,0,1,1,.653.238,56.191,56.191,0,0,0-2,10.348A.348.348,0,0,1,648.569,880.714Z" transform="translate(-648.221 -869.596)" fill="#5b2714"/>
    </g>
    <g id="그룹_16072" data-name="그룹 16072" transform="translate(114 376.943)">
      <path id="패스_1587" data-name="패스 1587" d="M628.423,972.117a9.245,9.245,0,0,1-6.44-2.134c-4.414-3.962-3.932-12.842-2.916-23.179.618-6.293,1.817-15.27,2.753-19.4a.348.348,0,0,1,.678.153c-.93,4.1-2.123,13.039-2.739,19.311-1,10.146-1.484,18.848,2.688,22.593,2.194,1.97,5.563,2.446,10.3,1.458,11.622-2.425,18.414-8.77,27.815-17.552,3.233-3.02,6.9-6.443,11.17-10.091a.347.347,0,1,1,.451.528c-4.261,3.639-7.919,7.056-11.147,10.071-9.483,8.859-16.335,15.26-28.148,17.724A21.98,21.98,0,0,1,628.423,972.117Z" transform="translate(-618.38 -927.136)" fill="#5b2714"/>
    </g>
    <g id="그룹_16073" data-name="그룹 16073" transform="translate(132.53 353.656)">
      <path id="패스_1588" data-name="패스 1588" d="M758.353,758.855a.347.347,0,0,1-.331-.453c.853-2.686,3.214-6.023,5.369-6.712a.348.348,0,1,1,.211.663c-1.922.613-4.134,3.791-4.918,6.259A.348.348,0,0,1,758.353,758.855Z" transform="translate(-758.005 -751.674)" fill="#5b2714"/>
    </g>
    <g id="그룹_16074" data-name="그룹 16074" transform="translate(119.817 367.566)">
      <path id="패스_1589" data-name="패스 1589" d="M672.544,865.5a13.919,13.919,0,0,1-5.5-1.077c-3.729-1.647-5.273-3.514-4.719-5.707a3.633,3.633,0,0,1,1.857-2.186.348.348,0,0,1,.335.61A2.944,2.944,0,0,0,663,858.884c-.457,1.81.958,3.414,4.326,4.9,3.731,1.648,9.371,1.23,11.175-.828a2.178,2.178,0,0,0,.039-2.789.347.347,0,1,1,.593-.362,2.816,2.816,0,0,1-.11,3.609C677.832,864.77,675.272,865.5,672.544,865.5Z" transform="translate(-662.211 -856.485)" fill="#5b2714"/>
    </g>
    <g id="그룹_16075" data-name="그룹 16075" transform="translate(204.829 437.228)">
      <path id="패스_1590" data-name="패스 1590" d="M1305.145,1395.642a3.484,3.484,0,0,1-2.251-1.115.347.347,0,1,1,.467-.514c1.01.917,1.823,1.159,2.421.719,1.829-1.346,1.77-8.42.314-11.547-.213-.458-.641-1.208-1.148-1.088a.348.348,0,0,1-.163-.676c.514-.124,1.27.029,1.941,1.47,1.456,3.128,1.75,10.72-.533,12.4A1.74,1.74,0,0,1,1305.145,1395.642Z" transform="translate(-1302.78 -1381.387)" fill="#5b2714"/>
    </g>
    <g id="그룹_16076" data-name="그룹 16076" transform="translate(211.469 437.173)">
      <path id="패스_1591" data-name="패스 1591" d="M1356.023,1399.293c-1.036,0-2.1-.966-3.171-2.881a.348.348,0,1,1,.607-.339c1.021,1.827,2.025,2.715,2.834,2.487,1.355-.376,2.323-3.607,2.2-7.354-.165-5.16-.951-8.473-2.213-9.328a1.216,1.216,0,0,0-1.163-.111.347.347,0,1,1-.236-.653,1.888,1.888,0,0,1,1.789.189c1.861,1.261,2.4,6.069,2.519,9.882.115,3.592-.78,7.51-2.712,8.046A1.7,1.7,0,0,1,1356.023,1399.293Z" transform="translate(-1352.808 -1380.973)" fill="#5b2714"/>
    </g>
    <g id="그룹_16077" data-name="그룹 16077" transform="translate(117.342 375.509)">
      <path id="패스_1592" data-name="패스 1592" d="M653.349,928.118a6.79,6.79,0,0,1-4.13-1.063c-2.638-2.121-5.7-5.555-5.661-8.254a2.938,2.938,0,0,1,1.241-2.4.348.348,0,1,1,.418.555,2.245,2.245,0,0,0-.964,1.853c-.037,2.291,2.686,5.519,5.4,7.7,2.231,1.794,8.911.838,11.912-1.7,1.472-1.248,1.8-2.616.989-4.067a.347.347,0,1,1,.606-.341c.975,1.733.568,3.487-1.145,4.938A14.5,14.5,0,0,1,653.349,928.118Z" transform="translate(-643.558 -916.334)" fill="#5b2714"/>
    </g>
    <g id="그룹_16078" data-name="그룹 16078" transform="translate(205.36 414.802)">
      <path id="패스_1593" data-name="패스 1593" d="M1307.129,1214.25a.348.348,0,0,1-.307-.511l.608-1.143a.347.347,0,1,1,.614.326l-.608,1.143A.348.348,0,0,1,1307.129,1214.25Z" transform="translate(-1306.782 -1212.412)" fill="#5b2714"/>
    </g>
    <g id="그룹_16079" data-name="그룹 16079" transform="translate(204.516 336.869)">
      <path id="패스_1594" data-name="패스 1594" d="M1300.771,703.344h-.016a.347.347,0,0,1-.331-.363c.357-7.8,1.829-12.373,4.618-20.431,2.339-6.757,6.28-16.523,10.452-26.862l.36-.892c5.126-12.7,7.436-22,7.271-29.26a.348.348,0,1,1,.7-.016c.167,7.357-2.159,16.742-7.321,29.536l-.36.893c-4.169,10.33-8.106,20.088-10.439,26.828-2.845,8.219-4.228,12.512-4.581,20.236A.348.348,0,0,1,1300.771,703.344Z" transform="translate(-1300.423 -625.18)" fill="#5b2714"/>
    </g>
    <g id="그룹_16080" data-name="그룹 16080" transform="translate(204.15 449.581)">
      <path id="패스_1595" data-name="패스 1595" d="M1297.674,1495.808h.7c.006-2.352,0-4.9,0-7.534-.008-4.411-.015-8.972.022-13.456a.347.347,0,0,0-.345-.35h0a.348.348,0,0,0-.348.345c-.037,4.488-.029,9.051-.022,13.463C1297.676,1490.906,1297.681,1493.457,1297.674,1495.808Z" transform="translate(-1297.665 -1474.467)" fill="#5b2714"/>
    </g>
    <g id="그룹_16081" data-name="그룹 16081" transform="translate(196.403 339.326)">
      <path id="패스_1596" data-name="패스 1596" d="M1249.286,708.1a.348.348,0,0,1-.333-.247c-4.081-13.5-11.146-52.383-9.393-63.862a.348.348,0,1,1,.687.105c-1.741,11.4,5.3,50.107,9.371,63.555a.348.348,0,0,1-.333.448Z" transform="translate(-1239.286 -643.697)" fill="#5b2714"/>
    </g>
    <g id="그룹_16082" data-name="그룹 16082" transform="translate(206.56 333.105)">
      <path id="패스_1597" data-name="패스 1597" d="M1316.361,665.357a.347.347,0,0,1-.345-.311c-.549-5.218.183-28.223.97-35.3a27.263,27.263,0,0,1,1.747-7.675,17.288,17.288,0,0,0,1.047-3.744c.188-1.169.289-2.111.379-2.943a10.535,10.535,0,0,1,1.185-4.58c.4-.715,1.6-1.445,3.246-2.454,3.587-2.193,9.006-5.507,9.955-11.24a.348.348,0,1,1,.686.113c-1,6.047-6.583,9.461-10.278,11.72a10.911,10.911,0,0,0-3,2.2,9.9,9.9,0,0,0-1.1,4.314c-.09.84-.193,1.792-.383,2.978a17.949,17.949,0,0,1-1.083,3.878,26.658,26.658,0,0,0-1.707,7.508c-.763,6.869-1.5,30.1-.97,35.152a.347.347,0,0,1-.309.382Z" transform="translate(-1315.825 -596.816)" fill="#5b2714"/>
    </g>
    <g id="그룹_16083" data-name="그룹 16083" transform="translate(198.085 337.472)">
      <path id="패스_1598" data-name="패스 1598" d="M1263.109,652.623a.346.346,0,0,1-.314-.2c-1.01-2.12-1.415-5.46-1.773-8.407-.144-1.191-.281-2.316-.444-3.223-.339-1.892-1.7-2.69-3.15-3.535a10.749,10.749,0,0,1-2.245-1.586c-1.727-1.728-2.77-2.771-3.215-5.543a.348.348,0,1,1,.686-.11c.393,2.446,1.21,3.35,3.02,5.161a10.23,10.23,0,0,0,2.1,1.477c1.518.887,3.088,1.805,3.484,4.013.166.927.3,2.062.449,3.263.351,2.894.749,6.173,1.71,8.192a.348.348,0,0,1-.314.5Z" transform="translate(-1251.963 -629.727)" fill="#5b2714"/>
    </g>
    <g id="그룹_16084" data-name="그룹 16084" transform="translate(224.501 331.921)">
      <path id="패스_1599" data-name="패스 1599" d="M1453.994,595.663a.348.348,0,0,1-.33-.238c-.117-.352-.221-.627-.315-.88a11.373,11.373,0,0,1-.592-2.021c-.175-.865-.709-3.5-1.57-3.975a.348.348,0,1,1,.337-.608c.8.443,1.373,1.772,1.915,4.445A10.687,10.687,0,0,0,1454,594.3c.1.26.2.543.325.9a.348.348,0,0,1-.33.458Z" transform="translate(-1451.007 -587.899)" fill="#5b2714"/>
    </g>
    <g id="그룹_16085" data-name="그룹 16085" transform="translate(196.504 336.016)">
      <path id="패스_1600" data-name="패스 1600" d="M1240.4,624.666a.348.348,0,0,1-.337-.432l.083-.339c.676-2.76,1.272-4.683,1.99-5.1a.348.348,0,0,1,.348.6c-.4.234-.963,1.8-1.663,4.662l-.084.343A.347.347,0,0,1,1240.4,624.666Z" transform="translate(-1240.047 -618.749)" fill="#5b2714"/>
    </g>
    <g id="그룹_16086" data-name="그룹 16086" transform="translate(204.631 354.089)">
      <path id="패스_1601" data-name="패스 1601" d="M1301.635,814.272a.348.348,0,0,1-.327-.466c2.857-7.881,8.25-14.076,13.008-19.542,3.352-3.849,6.517-7.486,8.5-11.288,8.468-16.275,9.674-19.518,9.638-20-.075-.246-1.851-.1-2.706-.026a16.735,16.735,0,0,1-3.646.049c-1.8-.279-3.521-2.839-5.111-7.608a.348.348,0,0,1,.66-.22c1.458,4.376,3.077,6.912,4.557,7.141a16.129,16.129,0,0,0,3.482-.054c1.853-.154,3.192-.267,3.434.543.116.385.356,1.187-9.693,20.5-2.016,3.876-5.208,7.543-8.587,11.424-4.718,5.42-10.066,11.563-12.879,19.322A.348.348,0,0,1,1301.635,814.272Z" transform="translate(-1301.287 -754.932)" fill="#5b2714"/>
    </g>
    <g id="그룹_16087" data-name="그룹 16087" transform="translate(244.749 358.055)">
      <path id="패스_1602" data-name="패스 1602" d="M1603.929,804.842a.319.319,0,0,1-.052,0,.346.346,0,0,1-.293-.394c1.226-8.28,5.122-17.424,8.335-19.567a.348.348,0,1,1,.386.578c-3.023,2.016-6.852,11.115-8.034,19.09A.347.347,0,0,1,1603.929,804.842Z" transform="translate(-1603.581 -784.818)" fill="#5b2714"/>
    </g>
    <g id="그룹_16088" data-name="그룹 16088" transform="translate(184.326 354.837)">
      <path id="패스_1603" data-name="패스 1603" d="M1169.255,815.535a.348.348,0,0,1-.339-.269c-1.065-4.6-3.915-8.849-6.932-13.349-2.792-4.165-5.68-8.471-7.294-13.324-6.87-20.658-6.506-21.411-6.331-21.773.368-.762,1.672-.439,3.478.006a16.252,16.252,0,0,0,3.429.6h.006c.83,0,2.669-.871,5.694-6.675a.348.348,0,0,1,.616.321c-2.438,4.677-4.561,7.049-6.31,7.049h-.01a16.752,16.752,0,0,1-3.593-.624c-.832-.205-2.561-.633-2.685-.378-.1.449.575,3.841,6.365,21.25,1.584,4.764,4.445,9.031,7.211,13.156,3.054,4.555,5.938,8.856,7.032,13.579a.348.348,0,0,1-.26.417A.34.34,0,0,1,1169.255,815.535Z" transform="translate(-1148.29 -760.567)" fill="#5b2714"/>
    </g>
    <g id="그룹_16089" data-name="그룹 16089" transform="translate(183.586 334.147)">
      <path id="패스_1604" data-name="패스 1604" d="M1151.741,632.369a.348.348,0,0,1-.328-.234c-1-2.877-4.186-4.753-6.3-6-1.332-.784-2.212-1.3-2.367-1.884-.249-.937.786-1.919,2.1-3.162a17.792,17.792,0,0,0,2.413-2.615,23.637,23.637,0,0,0,2.068-4.006,11,11,0,0,1,1.111-2.19,13.3,13.3,0,0,1,1.506-1.534,11.744,11.744,0,0,0,2.023-2.218c.186-.277.357-.538.518-.786a7.284,7.284,0,0,1,2.958-3.044.348.348,0,0,1,.311.622,6.669,6.669,0,0,0-2.686,2.8c-.163.25-.335.515-.524.795a12.313,12.313,0,0,1-2.132,2.344,12.556,12.556,0,0,0-1.431,1.454,11.059,11.059,0,0,0-1.017,2.032,24.172,24.172,0,0,1-2.133,4.124,18.307,18.307,0,0,1-2.507,2.725c-1.006.954-2.046,1.941-1.9,2.479.081.305,1.126.92,2.048,1.463,2.2,1.293,5.516,3.248,6.6,6.366a.348.348,0,0,1-.328.462Z" transform="translate(-1142.713 -604.667)" fill="#5b2714"/>
    </g>
    <g id="그룹_16090" data-name="그룹 16090" transform="translate(224.592 330.555)">
      <path id="패스_1605" data-name="패스 1605" d="M1456.151,608.69a.352.352,0,0,1-.145-.032.347.347,0,0,1-.17-.461c1.38-3.009,4.738-4.431,6.959-5.372.918-.389,1.961-.83,2.067-1.118.252-.677-.877-2.38-1.874-3.883-.526-.795-1.072-1.617-1.508-2.4a17.142,17.142,0,0,1-1.476-4.89,14.4,14.4,0,0,0-.854-3.186,7.052,7.052,0,0,0-.961-1.171,17.82,17.82,0,0,1-2.835-3.792c-.224-.425-.4-.8-.567-1.135a4.867,4.867,0,0,0-2.9-2.984.348.348,0,0,1,.3-.627,5.563,5.563,0,0,1,3.221,3.308c.16.329.337.7.556,1.113a17.258,17.258,0,0,0,2.732,3.645,6.9,6.9,0,0,1,1.074,1.337,14.808,14.808,0,0,1,.912,3.356,16.63,16.63,0,0,0,1.4,4.686c.423.762.96,1.572,1.479,2.356,1.245,1.879,2.321,3.5,1.946,4.509-.211.569-1.1.946-2.448,1.516-2.25.953-5.331,2.257-6.6,5.021A.346.346,0,0,1,1456.151,608.69Z" transform="translate(-1451.693 -577.604)" fill="#5b2714"/>
    </g>
    <g id="그룹_16091" data-name="그룹 16091" transform="translate(212.312 341.069)">
      <path id="패스_1606" data-name="패스 1606" d="M1366.311,670.173c-1.041,0-3.4-1.476-4.314-4.513-.248-.825-.974-2.723-2.421-2.455a.354.354,0,0,1-.4-.28.348.348,0,0,1,.28-.4c1.4-.254,2.572.817,3.21,2.939.863,2.868,3.209,4.14,3.681,4.016.357-.117,1.32-1.86,2.1-3.261.465-.842.992-1.8,1.54-2.711.647-1.078,1.215-1.876,1.718-2.58a16.142,16.142,0,0,0,2.209-3.873.347.347,0,0,1,.646.255,16.871,16.871,0,0,1-2.29,4.021c-.494.693-1.054,1.48-1.687,2.534-.542.9-1.066,1.852-1.528,2.689-1.285,2.325-1.929,3.449-2.534,3.6A.832.832,0,0,1,1366.311,670.173Z" transform="translate(-1359.167 -656.831)" fill="#5b2714"/>
    </g>
    <g id="그룹_16092" data-name="그룹 16092" transform="translate(196.426 344.203)">
      <path id="패스_1607" data-name="패스 1607" d="M1243.08,690.106l-.058,0c-.77-.048-1.054-1.029-1.815-3.652-.4-1.362-.936-3.226-1.725-5.549a.348.348,0,0,1,.658-.223c.794,2.337,1.338,4.211,1.734,5.579.468,1.612.909,3.134,1.192,3.152.03,0,1.083.03,2.548-3.217,1.239-2.747,2.57-3.888,3.95-3.4a.348.348,0,1,1-.233.655c-1.221-.435-2.351,1.406-3.083,3.028C1244.791,689.708,1243.584,690.106,1243.08,690.106Z" transform="translate(-1239.463 -680.444)" fill="#5b2714"/>
    </g>
    <g id="그룹_16093" data-name="그룹 16093" transform="translate(175.385 416.877)">
      <path id="패스_1608" data-name="패스 1608" d="M1082.22,1230.238a1.112,1.112,0,1,1,1.3-1.1A1.213,1.213,0,0,1,1082.22,1230.238Zm0-1.5c-.322,0-.6.187-.6.4s.283.4.6.4.6-.187.6-.4S1082.542,1228.741,1082.22,1228.741Z" transform="translate(-1080.92 -1228.046)" fill="#5b2714"/>
    </g>
    <g id="그룹_16094" data-name="그룹 16094" transform="translate(186.476 417.09)">
      <path id="패스_1609" data-name="패스 1609" d="M1165.788,1231.844a1.112,1.112,0,1,1,1.3-1.1A1.212,1.212,0,0,1,1165.788,1231.844Zm0-1.5c-.322,0-.6.188-.6.4s.283.4.6.4.6-.187.6-.4S1166.11,1230.347,1165.788,1230.347Z" transform="translate(-1164.488 -1229.652)" fill="#5b2714"/>
    </g>
    <g id="그룹_16095" data-name="그룹 16095" transform="translate(172.381 412.914)">
      <path id="패스_1610" data-name="패스 1610" d="M1076.5,1200.193a.348.348,0,0,1-.347-.337l-.024-.777-17.146-.2.011.821a.347.347,0,0,1-.343.352.376.376,0,0,1-.352-.343l-.017-1.177a.348.348,0,0,1,.1-.25.363.363,0,0,1,.25-.1l17.836.207a.348.348,0,0,1,.344.337l.034,1.109a.347.347,0,0,1-.336.358Z" transform="translate(-1058.286 -1198.181)" fill="#5b2714"/>
    </g>
    <g id="그룹_16096" data-name="그룹 16096" transform="translate(136.559 336.664)">
      <path id="패스_1611" data-name="패스 1611" d="M789.3,623.752a.928.928,0,0,1-.3-.048,30.616,30.616,0,0,1-.632,3.642.334.334,0,0,0,.049.269.345.345,0,0,0,.221.144.375.375,0,0,0,.436-.273,29.921,29.921,0,0,0,.66-3.846A.946.946,0,0,1,789.3,623.752Z" transform="translate(-788.359 -623.639)" fill="#5b2714"/>
    </g>
    <path id="패스_1612" data-name="패스 1612" d="M761.545,508.285c-.1,2.179-.908,6.3-1.483,6.746-3.26,2.546-5.48,4.846-1.483-6.746.71-2.06.107-4.473,1.483-3.949C760.693,504.575,761.686,505.157,761.545,508.285Z" transform="translate(-624.111 -184.441)" fill="#ffedde" fill-rule="evenodd"/>
    <path id="패스_1638" data-name="패스 1638" d="M1.907,1.5a6.946,6.946,0,0,1-.553,2.517C.138,4.967-.69,5.825.8,1.5,1.066.732.841-.168,1.354.027,1.589.117,1.96.334,1.907,1.5Z" transform="translate(136.107 325.704) rotate(-177)" fill="#ffedde" fill-rule="evenodd"/>
    <path id="패스_1613" data-name="패스 1613" d="M807.31,511.391c-.091,2.007-.844,5.8-1.378,6.213-3.029,2.344-5.091,4.462-1.377-6.213.66-1.9.1-4.119,1.377-3.637C806.518,507.975,807.441,508.511,807.31,511.391Z" transform="translate(-664.117 -186.411)" fill="#ffedde" fill-rule="evenodd"/>
    <path id="패스_1639" data-name="패스 1639" d="M802.572,511.391c.091,2.006.844,5.8,1.378,6.213,3.029,2.344,5.091,4.462,1.377-6.213-.66-1.9-.1-4.119-1.377-3.637C803.364,507.975,802.441,508.511,802.572,511.391Z" transform="translate(-426.596 -434.763) rotate(21)" fill="#ffedde" fill-rule="evenodd"/>
    <path id="패스_1640" data-name="패스 1640" d="M802.572,511.391c.091,2.006.844,5.8,1.378,6.213,3.029,2.344,5.091,4.462,1.377-6.213-.66-1.9-.1-4.119-1.377-3.637C803.364,507.975,802.441,508.511,802.572,511.391Z" transform="translate(-466.01 -404.015) rotate(18)" fill="#ffedde" fill-rule="evenodd"/>
    <path id="패스_1641" data-name="패스 1641" d="M802.571,511.391c.084,2.006.776,5.8,1.266,6.213,2.784,2.344,4.68,4.462,1.266-6.213-.607-1.9-.091-4.119-1.266-3.637C803.3,507.975,802.451,508.511,802.571,511.391Z" transform="translate(-466.643 -403.896) rotate(18)" fill="#ffedde" fill-rule="evenodd"/>
    <path id="패스_1615" data-name="패스 1615" d="M780.574,504.809" transform="translate(-645.049 -183.915)" fill="none" stroke="#ffedde" stroke-miterlimit="10" stroke-width="1" fill-rule="evenodd"/>
    <path id="패스_1623" data-name="패스 1623" d="M812.022,577.682a2.985,2.985,0,0,1-.073.315" transform="translate(-672.261 -247.117)" fill="none" stroke="#ffedde" stroke-miterlimit="10" stroke-width="1" fill-rule="evenodd"/>
    <path id="패스_1624" data-name="패스 1624" d="M811.016,578.879a.035.035,0,0,0-.044.009.1.1,0,0,0-.018.046l-.113.544" transform="translate(-671.299 -248.151)" fill="none" stroke="#ffedde" stroke-miterlimit="10" stroke-width="1" fill-rule="evenodd"/>
    <path id="패스_1625" data-name="패스 1625" d="M810.493,581.988a.29.29,0,0,0-.136.25" transform="translate(-670.878 -250.851)" fill="none" stroke="#ffedde" stroke-miterlimit="10" stroke-width="1" fill-rule="evenodd"/>
    <path id="패스_1631" data-name="패스 1631" d="M822.839,574.948a.073.073,0,0,0,.1-.073" transform="translate(-681.705 -244.682)" fill="none" stroke="#ffedde" stroke-miterlimit="10" stroke-width="1" fill-rule="evenodd"/>
    <path id="패스_1635" data-name="패스 1635" d="M778.787,649.106" transform="translate(-643.499 -309.062)" fill="none" stroke="#ffedde" stroke-miterlimit="10" stroke-width="1"/>
    <path id="패스_1636" data-name="패스 1636" d="M777.383,644.511" transform="translate(-642.281 -305.077)" fill="none" stroke="#ffedde" stroke-miterlimit="10" stroke-width="1"/>
    <path id="패스_1637" data-name="패스 1637" d="M777.255,643.489" transform="translate(-642.17 -304.19)" fill="none" stroke="#ffedde" stroke-miterlimit="10" stroke-width="1"/>
  </g>
</svg>
