<svg xmlns="http://www.w3.org/2000/svg" width="131.793" height="186.689" viewBox="0 0 131.793 186.689">
  <g id="그룹_16183" data-name="그룹 16183" transform="translate(-129 -306)">
    <path id="패스_989" data-name="패스 989" d="M856.388,622.234a3.864,3.864,0,0,1,1.214-.938l12.081-2.648a3.306,3.306,0,0,1,1.434.441,2.709,2.709,0,0,1,.828,1.1l4.854,22.783a3.124,3.124,0,0,1-.055,1.214,3.035,3.035,0,0,1-.552.993l-19.032-1.655,1.876-5.9-2.868-13.791C856.112,623.834,855.616,623.172,856.388,622.234Z" transform="translate(-721.412 -271.98)" fill="#fff"/>
    <path id="패스_990" data-name="패스 990" d="M812.225,769.729c.883-1.765,2.317-2.538,3.42-3.917a42.409,42.409,0,0,1,4.524-4.855c2.924-2.482,7.723-1.876,9.82-1.931,3.255-.11,5.406.883,4.91,2.317-.552,1.765-10.812,3.365-10.812,3.365a35.876,35.876,0,0,1,9.709,1.82,12.012,12.012,0,0,1,3.42,2.151c.993.772,2.262,1.71,2.648,1.986.662.607.276,1.821-.993,1.931-1.379.166-3.586-.607-5.13-.993a5.086,5.086,0,0,0-1.986-.11,37.776,37.776,0,0,1,3.862,5.9,7.847,7.847,0,0,1,.662,2.538c0,.993-.5,1.214-.5,1.214s.938,1.986-.331,2.372c-.883.276-3.2-1.324-3.2-1.324s-.221.993-.827,3.917c-.166.938-.662,2.427-.828,3.641-.166,1.1-.552,3.365-.717,4.579-.166,1.1-.938,3.034-.993,4.192a84.132,84.132,0,0,0,.993,17.653,16.126,16.126,0,0,1,7.613,5.02c3.365,3.972,5.9,10.812,5.9,10.812s-5.737,10.316-11.86,15.336c-5.516,4.524-11.309,3.751-14.4-.386-1.765-2.372-3.255-6.841-3.7-10.978-.772-7.006.276-14.95,1.434-23.721.662-5.075,1.269-10.757,1.765-15.777.331-3.475-.717-9.764-2.041-14.067a95.786,95.786,0,0,1-2.538-9.268C811.839,771.6,811.618,770.943,812.225,769.729Z" transform="translate(-682.6 -395.424)" fill="#ffe1c7"/>
    <path id="패스_991" data-name="패스 991" d="M1265.882,394.725h26.81l4.468,19.2a4.361,4.361,0,0,1,.993,2.151,8.151,8.151,0,0,1-.165,2.813c-.5,2.317-3.365,3.42-5.13,4.358-.662.331-1.214,4.965-.5,9.1a16.629,16.629,0,0,0,3.31,7.172,14.79,14.79,0,0,1-3.751,3.531A28.191,28.191,0,0,1,1280,447.408a26.692,26.692,0,0,1-10.371-.827,10.318,10.318,0,0,1-5.351-3.751,7,7,0,0,0,2.869-3.751,15.888,15.888,0,0,0,.166-6.068,20.787,20.787,0,0,1-4.744-7.833c-1.435-4.524-1.159-10.537-1.159-14.4a37.174,37.174,0,0,1,.607-7.888A24.993,24.993,0,0,1,1265.882,394.725Z" transform="translate(-1078.003 -75.033)" fill="#ffe1c7"/>
    <path id="패스_992" data-name="패스 992" d="M1233,288.1c4.137-2.1,10.04-4.027,16.108-2.538,1.545.386,3.145,2.482,4.634,3.089,2.813,1.158,6.289,2.7,8.33,4.689,3.089,3.034,4.082,8.164,3.751,12.578a33.1,33.1,0,0,1-3.144,11.419,2.25,2.25,0,0,0-1.214-.276c-1.324.11-3.31.441-4.413-.938a6.833,6.833,0,0,1-1.214-1.82,17.225,17.225,0,0,1-.883-2.869,5.022,5.022,0,0,1-1.875-1.489c-1.214-1.545-2.041-5.02-4.027-7.061a9.818,9.818,0,0,0-4.468-2.372c-1.434-.441-2.924-.938-3.972-.717-3.2.772-4.91,4.027-7.061,5.792a14.859,14.859,0,0,1-5.958,2.814l-.717,3.751s-4.965-3.806-4.744-7.723C1222.468,298.247,1228.591,290.3,1233,288.1Z" transform="translate(-1043.47 21.445)" fill="#e29b80"/>
    <path id="패스_993" data-name="패스 993" d="M971.815,836.485s-1.876,4.413-3.476,6.234c-1.6,1.875-2.979.993-2.979.993l2.648-4.3S965.361,832.4,962,828.431a15.687,15.687,0,0,0-7.447-4.965l-1.158-11.695s2.207-5.075,4.3-10.923c1.876-5.241,3.365-11.143,6.62-14.453,5.847-5.9,14.343-8.882,20.742-11.474a65.129,65.129,0,0,0,8.44-4.137,10.247,10.247,0,0,0,4.137,3.144,20.47,20.47,0,0,0,9.985,1.489,30.6,30.6,0,0,0,11.474-3.31,18.86,18.86,0,0,0,5.627-4.634,42.872,42.872,0,0,0,11.309,7.171c5.351,2.372,12.191,5.516,17.653,9.6,2.593,1.986,5.351,4.413,6.951,7.392,1.544,2.924,2.593,7.171,3.365,11.529.772,4.248,1.324,8.55,1.875,13.129,1.49,13.129,1.876,24.273,1.655,25.376-.11.717-1.048,1.489-2.151,1.931a13.7,13.7,0,0,1-3.475.938l.993-5.847-15.667-1.765-4.027,28.465s.055,3.586.552,10.1,1.379,16.053,1.379,16.053-13.129,4.027-32.271,4.027-44.3-4.027-44.3-4.027.717-15.391,1.876-29.127C971.65,847.849,971.815,836.485,971.815,836.485Z" transform="translate(-807.105 -402.878)" fill="#f7c667"/>
    <path id="패스_994" data-name="패스 994" d="M1482.75,902.023a13.579,13.579,0,0,1,2.1-2.979,1.822,1.822,0,0,1,1.876-.5,4.66,4.66,0,0,1,1.931-2.317,3.863,3.863,0,0,1,2.758.331s1.434-1.931,2.869-1.82,2.868,2.207,2.868,2.207a5.463,5.463,0,0,1,3.641,2.206c2.152,2.648,5.02,6.84,5.02,6.84a40.553,40.553,0,0,1-2.207,6.344c-1.269,2.869-3.641,6.123-3.365,10.812a60.05,60.05,0,0,0,2.869,15,39.583,39.583,0,0,0,5.847,10.757s5.572.055,9.543.552a37.359,37.359,0,0,1,6.289,1.158s-1.379,8.164-2.372,11.529a45.614,45.614,0,0,1-4.3,9.764,14.894,14.894,0,0,1-5.461,5.406c-5.13,2.758-10.15-2.041-12.467-4.082-5.075-4.523-9.544-23.555-13.129-37.181-.883-3.42-2.869-7.5-3.476-9.764-1.214-4.524-3.475-7.557-3.751-10.481-.165-1.71-1.214-5.792-1.324-7.116-.165-1.379.938-1.931,1.545-2.924A32.788,32.788,0,0,1,1482.75,902.023Z" transform="translate(-1268.943 -514.809)" fill="#ffe1c7"/>
    <path id="패스_995" data-name="패스 995" d="M974.912,748.522c.11-.607.165-1.269.883-1.489.828-.276,1.71.938,1.545,1.71-.166.552-1.159.055-1.6,0A4.159,4.159,0,0,1,974.912,748.522Z" transform="translate(-826.034 -384.864)" fill="#ffd35a"/>
    <g id="그룹_258" data-name="그룹 258" transform="translate(158.848 397.019)">
      <path id="패스_996" data-name="패스 996" d="M1060.23,1128.421h0a.318.318,0,0,1-.331-.331c.166-6.509,1.159-19.087,1.986-29.127.386-4.523.717-8.771.938-11.86a132.783,132.783,0,0,0-.717-29.789,146.051,146.051,0,0,0-3.586-17.046c-.276-1.048-.552-2.1-.828-3.2a.368.368,0,0,1,.717-.166c.276,1.048.552,2.151.828,3.2a146.945,146.945,0,0,1,3.586,17.1,134.24,134.24,0,0,1,.717,29.954c-.221,3.089-.552,7.392-.938,11.861-.827,10.04-1.82,22.563-1.986,29.072A.473.473,0,0,1,1060.23,1128.421Z" transform="translate(-1057.678 -1036.613)" fill="#5b2714"/>
    </g>
    <g id="그룹_259" data-name="그룹 259" transform="translate(237.417 402.259)">
      <path id="패스_997" data-name="패스 997" d="M1710.2,1109.419h0c-.221,0-.331-.166-.331-.386.165-4.138.331-7.448.607-10.04a79.113,79.113,0,0,1,3.807-18.646.349.349,0,1,1,.662.221,77.61,77.61,0,0,0-3.807,18.48c-.22,2.593-.441,5.847-.607,9.985A.31.31,0,0,1,1710.2,1109.419Z" transform="translate(-1709.873 -1080.112)" fill="#5b2714"/>
    </g>
    <g id="그룹_260" data-name="그룹 260" transform="translate(235.792 462.128)">
      <path id="패스_998" data-name="패스 998" d="M1698.73,1604.161a.356.356,0,0,1-.331-.331c-.386-4.91-.772-8.33-1.048-11.033-.166-1.71-.331-3.144-.441-4.524v-.166a101.761,101.761,0,0,1-.5-10.7.36.36,0,1,1,.717.055,100.9,100.9,0,0,0,.5,10.647v.166c.11,1.379.276,2.814.441,4.524.331,2.7.717,6.123,1.048,11.033a.369.369,0,0,1-.386.331Z" transform="translate(-1696.388 -1577.075)" fill="#5b2714"/>
    </g>
    <g id="그룹_261" data-name="그룹 261" transform="translate(239.348 433.693)">
      <path id="패스_999" data-name="패스 999" d="M1741.346,1349.289a.356.356,0,0,1-.331-.331.473.473,0,0,1,.331-.386,11.03,11.03,0,0,0,4.137-1.159c.883-.607,1.214-1.158,1.048-1.655-.883-2.538-14.122-4.248-20.245-3.972a.413.413,0,0,1-.386-.331.473.473,0,0,1,.331-.386c4.744-.221,19.749,1.048,20.907,4.469.276.827-.166,1.655-1.324,2.427a9.984,9.984,0,0,1-4.468,1.324Z" transform="translate(-1725.9 -1341.045)" fill="#5b2714"/>
    </g>
    <g id="그룹_262" data-name="그룹 262" transform="translate(213.694 350.419)">
      <path id="패스_1000" data-name="패스 1000" d="M1559.624,738.216h0c-.221,0-.331-.165-.331-.386.166-3.586-.166-9.819-1.048-19.032a204.58,204.58,0,0,0-2.813-20.8c-.993-5.3-2.372-9.1-4.082-11.419-4.854-6.565-12.854-10.316-20.577-13.957-2.151-.993-4.413-2.041-6.454-3.144-6.785-3.531-11.971-7.171-11.309-19.363a.36.36,0,1,1,.717.055c-.662,11.805,4.137,15.226,10.923,18.7,2.1,1.048,4.3,2.1,6.454,3.144,7.833,3.7,15.887,7.447,20.852,14.177,1.765,2.372,3.144,6.289,4.193,11.695a205.573,205.573,0,0,1,2.813,20.852c.883,9.378,1.214,15.446,1.048,19.087C1559.955,738.106,1559.789,738.216,1559.624,738.216Z" transform="translate(-1512.953 -649.787)" fill="#5b2714"/>
    </g>
    <g id="그룹_263" data-name="그룹 263" transform="translate(145.909 357.91)">
      <path id="패스_1001" data-name="패스 1001" d="M950.649,763.454a.2.2,0,0,1-.166-.055.3.3,0,0,1-.165-.441c2.206-5.075,3.7-9.268,5.02-12.964,1.931-5.461,3.31-9.378,5.737-12.3,4.689-5.737,15.667-9.764,19.859-11.254,5.13-1.876,9.158-4.027,10.978-5.848,2.427-2.427,1.71-6.9,1.489-8.219a.336.336,0,0,1,.662-.11c.276,1.379.993,6.123-1.655,8.827-2.7,2.7-8.716,5.13-11.2,6.013-4.082,1.49-15,5.461-19.528,11.033-2.317,2.869-3.7,6.73-5.627,12.136-1.324,3.7-2.813,7.944-5.02,13.019A.5.5,0,0,1,950.649,763.454Z" transform="translate(-950.274 -711.975)" fill="#5b2714"/>
    </g>
    <g id="그룹_264" data-name="그룹 264" transform="translate(186.147 364.243)">
      <path id="패스_1002" data-name="패스 1002" d="M1296.719,773.227c-5.516,0-10.04-1.655-12.357-4.524a.353.353,0,0,1,.552-.441c2.317,2.869,6.84,4.413,12.522,4.248,7.5-.166,14.564-3.255,17.929-7.833a.353.353,0,0,1,.552.441c-3.475,4.744-10.7,7.889-18.48,8.109Z" transform="translate(-1284.286 -764.545)" fill="#5b2714"/>
    </g>
    <g id="그룹_265" data-name="그룹 265" transform="translate(178.252 320.222)">
      <path id="패스_1003" data-name="패스 1003" d="M1222.194,411.78a.287.287,0,0,1-.221-.11c-1.434-1.324-5.847-6.178-1.048-12.412a.353.353,0,1,1,.551.441c-4.3,5.627-.772,9.874.938,11.474a.309.309,0,0,1,0,.5A.286.286,0,0,1,1222.194,411.78Z" transform="translate(-1218.746 -399.125)" fill="#5b2714"/>
    </g>
    <g id="그룹_266" data-name="그룹 266" transform="translate(183.3 344.185)">
      <path id="패스_1004" data-name="패스 1004" d="M1275.161,616.192c-4.248,0-8.385-3.365-10.15-5.682a23.432,23.432,0,0,1-4.358-12.081.4.4,0,0,1,.331-.386.365.365,0,0,1,.386.331,22.671,22.671,0,0,0,4.192,11.7c1.655,2.151,5.572,5.406,9.6,5.406h.055c3.2,0,9.544-2.262,12.909-8.22a.36.36,0,1,1,.607.386c-3.531,6.234-10.04,8.551-13.571,8.551Z" transform="translate(-1260.653 -598.043)" fill="#5b2714"/>
    </g>
    <g id="그룹_267" data-name="그룹 267" transform="translate(214.513 338.22)">
      <path id="패스_1005" data-name="패스 1005" d="M1520.365,558.573h-.331a.336.336,0,0,1,.11-.662,4.056,4.056,0,0,0,2.979-1.214,5.387,5.387,0,0,0,1.931-4.082c0-1.655-.441-2.813-1.324-3.2a2.592,2.592,0,0,0-2.7.717.353.353,0,1,1-.441-.552c1.158-.993,2.427-1.324,3.42-.828,1.1.5,1.765,1.931,1.71,3.806a6.142,6.142,0,0,1-2.207,4.634A5.168,5.168,0,0,1,1520.365,558.573Z" transform="translate(-1519.747 -548.525)" fill="#5b2714"/>
    </g>
    <g id="그룹_268" data-name="그룹 268" transform="translate(195.374 337.821)">
      <path id="패스_1006" data-name="패스 1006" d="M1362.482,553.235a.332.332,0,0,1-.221-.055c-1.931-1.545-1.434-2.538-.938-3.586a4.173,4.173,0,0,0,.221-3.917.349.349,0,1,1,.662-.221,4.868,4.868,0,0,1-.276,4.468c-.5.993-.772,1.545.717,2.758a.349.349,0,0,1,.055.5A.57.57,0,0,1,1362.482,553.235Z" transform="translate(-1360.874 -545.216)" fill="#5b2714"/>
    </g>
    <g id="그룹_269" data-name="그룹 269" transform="translate(201.172 332.188)">
      <path id="패스_1007" data-name="패스 1007" d="M1415.789,500.3a.332.332,0,0,1-.221-.055c-1.49-1.1-4.634-1.434-6.013-.662a.36.36,0,1,1-.386-.607c1.655-.938,5.02-.552,6.73.662a.349.349,0,0,1,.055.5C1416.01,500.3,1415.9,500.3,1415.789,500.3Z" transform="translate(-1409.001 -498.456)" fill="#5b2714"/>
    </g>
    <g id="그룹_270" data-name="그룹 270" transform="translate(215.969 342.117)">
      <path id="패스_1008" data-name="패스 1008" d="M1532.206,582.995a.2.2,0,0,1-.166-.055.3.3,0,0,1-.166-.441,6.031,6.031,0,0,1,1.1-1.545.351.351,0,0,1,.5.5,5.326,5.326,0,0,0-.938,1.324A.372.372,0,0,1,1532.206,582.995Z" transform="translate(-1531.831 -580.871)" fill="#5b2714"/>
    </g>
    <g id="그룹_271" data-name="그룹 271" transform="translate(182.99 331.928)">
      <path id="패스_1009" data-name="패스 1009" d="M1258.495,503.422a.318.318,0,0,1-.331-.331,26.041,26.041,0,0,1,.276-6.509.368.368,0,0,1,.717.166,27.377,27.377,0,0,0-.276,6.289.377.377,0,0,1-.386.386Z" transform="translate(-1258.074 -496.295)" fill="#5b2714"/>
    </g>
    <path id="패스_1010" data-name="패스 1010" d="M1428.223,546.68a1.339,1.339,0,0,0-1.324-1.324,1.307,1.307,0,0,0-1.048,1.545,1.213,1.213,0,1,0,2.372-.221Z" transform="translate(-1222.636 -207.514)" fill="#5b2714"/>
    <g id="그룹_272" data-name="그룹 272" transform="translate(202.487 322.384)">
      <path id="패스_1011" data-name="패스 1011" d="M1430.468,428.229c-2.979,0-4.248-2.7-5.572-5.351-1.214-2.482-2.317-4.8-4.689-5.13a.336.336,0,0,1,.11-.662c2.7.386,3.972,2.979,5.241,5.517,1.324,2.758,2.593,5.351,5.627,4.854.166,0,.386.11.386.276a.324.324,0,0,1-.276.386A2.143,2.143,0,0,1,1430.468,428.229Z" transform="translate(-1419.92 -417.074)" fill="#5b2714"/>
    </g>
    <g id="그룹_273" data-name="그룹 273" transform="translate(182.693 320.81)">
      <path id="패스_1012" data-name="패스 1012" d="M1256.5,413.366h-.552a.36.36,0,1,1,.055-.717c4.3.221,6.841-2.538,9.1-5.02,2.041-2.207,3.972-4.3,6.73-3.42a.349.349,0,1,1-.221.662c-2.317-.717-3.917.993-5.958,3.255C1263.339,410.608,1260.8,413.366,1256.5,413.366Z" transform="translate(-1255.616 -404.002)" fill="#5b2714"/>
    </g>
    <g id="그룹_274" data-name="그룹 274" transform="translate(191.719 348.543)">
      <path id="패스_1013" data-name="패스 1013" d="M1333.464,636.966a24.744,24.744,0,0,0,4.854.552,34.235,34.235,0,0,0,5.847-.5s-1.269,5.682-5.682,5.737C1334.843,642.7,1333.464,636.966,1333.464,636.966Z" transform="translate(-1333.111 -636.635)" fill="#fff"/>
      <path id="패스_1014" data-name="패스 1014" d="M1335.909,640.618c-3.917,0-5.3-5.737-5.351-5.958-.055-.11,0-.221.11-.331a.406.406,0,0,1,.331-.11,22.45,22.45,0,0,0,4.8.5,42.977,42.977,0,0,0,5.792-.5.406.406,0,0,1,.331.11.784.784,0,0,1,.11.331c-.055.055-1.434,5.9-6.123,5.958Zm-4.524-5.627c.441,1.379,1.82,4.91,4.524,4.91h.055c3.31-.055,4.744-3.586,5.185-4.91a36.957,36.957,0,0,1-5.406.441A22.458,22.458,0,0,1,1331.385,634.991Z" transform="translate(-1330.536 -634.219)" fill="#5b2714"/>
    </g>
    <g id="그룹_275" data-name="그룹 275" transform="translate(211.696 334.241)">
      <path id="패스_1015" data-name="패스 1015" d="M1499.853,519.374h0c-2.317-.055-3.089-1.986-3.475-3.42a.349.349,0,0,1,.662-.221c.552,1.986,1.379,2.868,2.813,2.924a.369.369,0,0,1,.331.386A.318.318,0,0,1,1499.853,519.374Z" transform="translate(-1496.363 -515.498)" fill="#5b2714"/>
    </g>
    <path id="패스_1016" data-name="패스 1016" d="M1308.7,543.933a1.339,1.339,0,0,0-1.324-1.324,1.307,1.307,0,0,0-1.048,1.545,1.339,1.339,0,0,0,1.324,1.324A1.357,1.357,0,0,0,1308.7,543.933Z" transform="translate(-1117.516 -205.098)" fill="#5b2714"/>
    <g id="그룹_276" data-name="그룹 276" transform="translate(186.277 332.123)">
      <path id="패스_1017" data-name="패스 1017" d="M1285.7,499.492a.3.3,0,0,1-.276-.166.359.359,0,0,1,.11-.5,6.684,6.684,0,0,1,6.123-.331.37.37,0,1,1-.331.662,6.147,6.147,0,0,0-5.461.276C1285.806,499.437,1285.751,499.492,1285.7,499.492Z" transform="translate(-1285.363 -497.911)" fill="#5b2714"/>
    </g>
    <g id="그룹_277" data-name="그룹 277" transform="translate(201.715 312.132)">
      <path id="패스_1018" data-name="패스 1018" d="M1413.851,337.547h-.055c-.166-.055-.331-.221-.276-.386a9.986,9.986,0,0,1,3.641-5.13.36.36,0,1,1,.386.607,9.829,9.829,0,0,0-3.365,4.689A.372.372,0,0,1,1413.851,337.547Z" transform="translate(-1413.509 -331.973)" fill="#5b2714"/>
    </g>
    <g id="그룹_278" data-name="그룹 278" transform="translate(179.318 306)">
      <path id="패스_1019" data-name="패스 1019" d="M1227.935,293.437a.309.309,0,0,1-.331-.276.324.324,0,0,1,.276-.386c1.765-.276,2.538-1.379,3.641-2.924.441-.607.938-1.324,1.545-2.041,3.365-3.917,10.647-6.951,16.274-6.73,2.869.11,6.841.552,8.275,3.255a.37.37,0,1,1-.662.331c-.938-1.82-3.365-2.7-7.668-2.869-5.406-.166-12.412,2.7-15.722,6.509a15.526,15.526,0,0,0-1.49,1.986c-1.1,1.489-2.041,2.814-4.137,3.144Z" transform="translate(-1227.594 -281.069)" fill="#5b2714"/>
    </g>
    <g id="그룹_279" data-name="그룹 279" transform="translate(211.423 310.778)">
      <path id="패스_1020" data-name="패스 1020" d="M1502,349.121c-.055,0-.11,0-.11-.055a.3.3,0,0,1-.165-.441c5.24-12.191,2.923-19.142,0-22.893-2.648-3.365-6.013-4.469-7.227-4.3-.166,0-.386-.11-.386-.276a.324.324,0,0,1,.276-.386c1.6-.276,5.241,1.214,7.833,4.578,2.979,3.862,5.461,11.088.055,23.555C1502.278,349.011,1502.112,349.121,1502,349.121Z" transform="translate(-1494.102 -320.734)" fill="#5b2714"/>
    </g>
    <g id="그룹_280" data-name="그룹 280" transform="translate(227.719 381.653)">
      <path id="패스_1021" data-name="패스 1021" d="M1633,938.838a.318.318,0,0,1-.331-.331c-.331-3.751-.221-6.73,1.489-9.985a64.485,64.485,0,0,0,3.475-7.668c.552-1.544.607-2.151-.772-4.137-1.159-1.655-2.648-3.7-3.917-5.186a4.228,4.228,0,0,0-2.207-1.379c-.331-.11-.717-.276-1.159-.441a.333.333,0,1,1,.276-.607c.386.166.772.331,1.1.441a5.248,5.248,0,0,1,2.538,1.6c1.269,1.49,2.813,3.586,3.972,5.241,1.434,2.1,1.49,2.868.827,4.744a71.4,71.4,0,0,1-3.475,7.723c-1.655,3.089-1.765,5.958-1.379,9.6a.468.468,0,0,1-.441.386Z" transform="translate(-1629.368 -909.06)" fill="#5b2714"/>
    </g>
    <g id="그룹_281" data-name="그룹 281" transform="translate(231.018 410.659)">
      <path id="패스_1022" data-name="패스 1022" d="M1671.76,1184.039a.372.372,0,0,1-.331-.221c-1.159-3.475-3.144-6.178-5.3-9.1a38.607,38.607,0,0,1-5.572-9.213,49.433,49.433,0,0,1-3.806-15.281.36.36,0,0,1,.717-.055,49.85,49.85,0,0,0,3.751,15.115,40.212,40.212,0,0,0,5.461,9.047c2.151,2.924,4.248,5.682,5.406,9.268a.375.375,0,0,1-.221.441Z" transform="translate(-1656.755 -1149.837)" fill="#5b2714"/>
    </g>
    <g id="그룹_282" data-name="그룹 282" transform="translate(222.134 379.596)">
      <path id="패스_1023" data-name="패스 1023" d="M1593.218,901.478a.35.35,0,0,1-.331-.276,11.823,11.823,0,0,0-2.1-3.31c-.276-.386-.607-.772-.883-1.158-.441-.607-.828-1.269-1.214-1.875-.331-.5-.607-.938-.772-1.214a2.278,2.278,0,0,0-1.931-.938,2.994,2.994,0,0,0-2.317,1.655.36.36,0,0,1-.607-.386,3.937,3.937,0,0,1,2.924-1.986,2.837,2.837,0,0,1,2.482,1.158,15.21,15.21,0,0,1,.828,1.324,20.857,20.857,0,0,0,1.214,1.82c.276.386.607.772.883,1.1a12.466,12.466,0,0,1,2.262,3.586.362.362,0,0,1-.276.441C1593.273,901.478,1593.273,901.478,1593.218,901.478Z" transform="translate(-1583.01 -891.984)" fill="#5b2714"/>
    </g>
    <g id="그룹_283" data-name="그룹 283" transform="translate(217.585 380.815)">
      <path id="패스_1024" data-name="패스 1024" d="M1546.106,911.645h0c-.221,0-.331-.166-.331-.386a14.437,14.437,0,0,0-.331-3.972,6.241,6.241,0,0,1,.11-3.475,3.254,3.254,0,0,1,2.813-1.71,2.231,2.231,0,0,1,2.041,1.1c.221.386.442.828.717,1.379a28.35,28.35,0,0,0,3.2,5.185.351.351,0,0,1-.5.5,27.314,27.314,0,0,1-3.31-5.351c-.276-.5-.5-.993-.717-1.324a1.432,1.432,0,0,0-1.434-.717,2.7,2.7,0,0,0-2.206,1.324,4.99,4.99,0,0,0-.055,2.979,15.932,15.932,0,0,1,.331,4.193A.358.358,0,0,1,1546.106,911.645Z" transform="translate(-1545.251 -902.102)" fill="#5b2714"/>
    </g>
    <g id="그룹_284" data-name="그룹 284" transform="translate(212.58 383.404)">
      <path id="패스_1025" data-name="패스 1025" d="M1504.932,936.731a.477.477,0,0,1-.331-.166,8.14,8.14,0,0,1-.828-4.744,22.334,22.334,0,0,1,.607-2.427c.166-.552.331-1.1.441-1.655.276-1.159.883-4.248,3.862-4.138a.36.36,0,1,1-.055.717c-2.1-.055-2.814,1.876-3.144,3.586a11.7,11.7,0,0,1-.5,1.71,20.636,20.636,0,0,0-.607,2.317,7.725,7.725,0,0,0,.772,4.358.359.359,0,0,1-.11.5C1505.043,936.731,1504.988,936.731,1504.932,936.731Z" transform="translate(-1503.706 -923.599)" fill="#5b2714"/>
    </g>
    <g id="그룹_285" data-name="그룹 285" transform="translate(215.055 412.901)">
      <path id="패스_1026" data-name="패스 1026" d="M1549.425,1219.327c-5.682,0-10.095-6.123-10.647-6.84-2.648-3.806-6.785-14.232-9.158-25.155a149.031,149.031,0,0,0-5.351-18.425.349.349,0,1,1,.662-.221,138.175,138.175,0,0,1,5.406,18.536c2.593,11.916,6.841,21.735,9.047,24.879.5.717,4.965,7.006,10.647,6.51,3.751-.276,7.061-3.531,9.93-9.543,2.7-5.627,4.193-14.95,4.634-17.653.055-.166.221-.331.386-.276s.331.221.276.386c-.386,2.758-1.986,12.136-4.689,17.873-2.979,6.289-6.565,9.654-10.537,9.93Z" transform="translate(-1524.25 -1168.445)" fill="#5b2714"/>
    </g>
    <g id="그룹_286" data-name="그룹 286" transform="translate(209.149 386.77)">
      <path id="패스_1027" data-name="패스 1027" d="M1481.7,978.9a.373.373,0,0,1-.331-.221c-.276-.662-.5-1.324-.772-1.986-.828-2.1-1.655-4.3-2.648-6.289a15.145,15.145,0,0,1-1.6-5.185,24.28,24.28,0,0,0-.552-2.758,19.216,19.216,0,0,1-.552-2.979,4.528,4.528,0,0,1,1.379-3.7,7.355,7.355,0,0,0,.772-1.048,9.615,9.615,0,0,0,.607-.993c.772-1.269,1.324-2.262,2.207-2.207a.369.369,0,0,1,.331.386c0,.221-.166.331-.386.331-.441-.055-1.048.938-1.6,1.876-.22.331-.386.662-.607.993a9.565,9.565,0,0,1-.828,1.1,3.835,3.835,0,0,0-1.214,3.2,17.7,17.7,0,0,0,.552,2.869,23.121,23.121,0,0,1,.552,2.813,14.215,14.215,0,0,0,1.545,4.965,58.949,58.949,0,0,1,2.648,6.344c.276.662.5,1.324.772,1.986a.329.329,0,0,1-.22.441C1481.808,978.9,1481.753,978.9,1481.7,978.9Z" transform="translate(-1475.219 -951.54)" fill="#5b2714"/>
    </g>
    <g id="그룹_287" data-name="그룹 287" transform="translate(145.849 386.055)">
      <path id="패스_1028" data-name="패스 1028" d="M954.342,997.459a.356.356,0,0,1-.331-.331A43.816,43.816,0,0,0,952.3,986.7a64.338,64.338,0,0,1-1.71-8.937c-.717-6.565-.993-12.081-.717-14.784a13.08,13.08,0,0,1,.772-3.42,7.12,7.12,0,0,0,.441-1.71c.11-.717.166-1.324.221-1.986.11-1.048.221-2.041.441-3.144a14.079,14.079,0,0,1,.5-1.71c.166-.552.331-1.158.441-1.6.166-.938.441-2.317.552-3.475a.36.36,0,0,1,.717.055c-.11,1.214-.386,2.593-.552,3.586-.11.441-.276,1.048-.441,1.655a15.25,15.25,0,0,0-.441,1.655c-.221,1.1-.331,2.1-.441,3.089-.055.662-.166,1.324-.221,1.986-.11.607-.276,1.158-.441,1.82a15.877,15.877,0,0,0-.717,3.255c-.221,2.041-.11,6.951.717,14.619a64.238,64.238,0,0,0,1.71,8.826,47.2,47.2,0,0,1,1.71,10.592c-.166.221-.331.386-.5.386Z" transform="translate(-949.769 -945.604)" fill="#5b2714"/>
    </g>
    <g id="그룹_288" data-name="그룹 288" transform="translate(139.699 378.817)">
      <path id="패스_1029" data-name="패스 1029" d="M903.987,900.865h0c-.221,0-.331-.166-.331-.386a12.089,12.089,0,0,0-.772-4.358c-.331-1.048-.607-1.82-.276-2.427.386-.827,2.1-1.71,3.42-2.041a2.452,2.452,0,0,1,1.931.055,3.415,3.415,0,0,1,.772.772,6.93,6.93,0,0,0,1.434,1.324,1.758,1.758,0,0,0,1.876.276c.221-.166.221-.386.11-.717a36.429,36.429,0,0,0-1.875-4.082,8.268,8.268,0,0,0-2.207-2.869c-1.158-.552-2.427,0-3.806.552a9.226,9.226,0,0,1-1.1.441c-1.71.607-3.972,1.545-3.972,1.545a.333.333,0,0,1-.276-.607s2.262-.938,4.027-1.545a8.5,8.5,0,0,0,1.048-.441c1.434-.607,2.924-1.214,4.358-.552.772.331,1.986,2.041,2.538,3.144a34.064,34.064,0,0,1,1.931,4.192,1.243,1.243,0,0,1-.386,1.49,2.394,2.394,0,0,1-2.7-.331,9.417,9.417,0,0,1-1.49-1.434,7.447,7.447,0,0,0-.662-.662,1.909,1.909,0,0,0-1.379.055,6.115,6.115,0,0,0-2.979,1.655,3.369,3.369,0,0,0,.331,1.875,12.822,12.822,0,0,1,.828,4.579C904.318,900.755,904.153,900.865,903.987,900.865Z" transform="translate(-898.726 -885.518)" fill="#5b2714"/>
    </g>
    <g id="그룹_289" data-name="그룹 289" transform="translate(136.059 374.349)">
      <path id="패스_1030" data-name="패스 1030" d="M885.575,860.025a.318.318,0,0,1-.331-.331.365.365,0,0,1,.331-.386c.166,0,.221-.055.221-.11.276-.441-.221-1.765-.441-2.482-.055-.165-.11-.276-.166-.441-.552-1.71-3.531-6.178-5.186-6.9-1.6-.662-3.089-.166-4.854.717a65.745,65.745,0,0,1-6.179,2.7.349.349,0,1,1-.221-.662,51.968,51.968,0,0,0,6.068-2.648c1.655-.827,3.475-1.489,5.461-.717,1.931.772,4.965,5.461,5.627,7.282a3.847,3.847,0,0,1,.166.441c.386,1.048.827,2.372.386,3.089a1.661,1.661,0,0,1-.883.441Z" transform="translate(-868.509 -848.428)" fill="#5b2714"/>
    </g>
    <g id="그룹_290" data-name="그룹 290" transform="translate(133.472 369.278)">
      <path id="패스_1031" data-name="패스 1031" d="M869.554,814.563a15.4,15.4,0,0,1-3.7-.717,12.052,12.052,0,0,0-3.42-.607.365.365,0,0,1-.386-.331c0-.221.11-.386.331-.386a13.816,13.816,0,0,1,3.641.662c1.6.441,3.806.993,4.3.5a1.125,1.125,0,0,0,.441-.827c-.055-.607-1.1-1.269-2.372-2.041-.607-.386-1.324-.828-2.041-1.324-2.869-2.1-6.51-2.317-8.661-2.482-1.214-.11-3.53,1.1-5.792,2.262a35.052,35.052,0,0,1-4.413,1.986.349.349,0,1,1-.221-.662,30.159,30.159,0,0,0,4.3-1.931c2.427-1.269,4.744-2.427,6.123-2.317,2.262.165,5.958.386,8.992,2.593q1.076.745,1.986,1.324c1.49.938,2.593,1.6,2.7,2.538a1.736,1.736,0,0,1-.607,1.379A1.532,1.532,0,0,1,869.554,814.563Z" transform="translate(-847.032 -806.336)" fill="#5b2714"/>
    </g>
    <g id="그룹_291" data-name="그룹 291" transform="translate(129 363.253)">
      <path id="패스_1032" data-name="패스 1032" d="M822.4,848.409a9.583,9.583,0,0,1-2.151-.276c-4.689-1.1-9.874-7.668-8.992-22.452.441-7.392,1.269-13.57,2.041-19.032.662-4.8,1.214-8.937,1.379-12.8a44.782,44.782,0,0,0-2.7-15.887c-.331-.993-.607-1.986-.883-2.813-.11-.331-.166-.607-.276-.938a13.828,13.828,0,0,1-.827-5.792c.276-1.655,1.434-2.813,2.538-3.972.386-.386.717-.772,1.048-1.158,2.262-2.7,4.579-5.461,6.785-6.179a25.925,25.925,0,0,1,8.661-.717c.883.055,3.7.331,4.358,1.545a1.217,1.217,0,0,1-.166,1.324c-.552.883-2.593,1.545-6.344,2.151a15.91,15.91,0,0,0-4.193.938,4.876,4.876,0,0,0-1.158,1.6.333.333,0,1,1-.607-.276,5.056,5.056,0,0,1,1.434-1.876,14.025,14.025,0,0,1,4.468-1.048c4.3-.662,5.572-1.379,5.847-1.82a.634.634,0,0,0,.11-.662c-.331-.662-2.207-1.1-3.751-1.214a24.566,24.566,0,0,0-8.44.717c-2.041.607-4.3,3.31-6.454,5.958-.331.386-.717.772-1.1,1.158a7.347,7.347,0,0,0-2.372,3.586,13.531,13.531,0,0,0,.772,5.461c.11.331.166.662.276.938.221.883.552,1.82.828,2.813a46.068,46.068,0,0,1,2.758,16.108A123.889,123.889,0,0,1,813.9,806.65c-.772,5.461-1.6,11.64-2.041,18.977-.772,13.405,3.7,20.576,8.5,21.735,4.468,1.048,8.716-1.434,14.784-8.606a54.185,54.185,0,0,0,6.123-9.378.37.37,0,1,1,.662.331,56.63,56.63,0,0,1-6.178,9.488C830.394,845.6,826.367,848.409,822.4,848.409Z" transform="translate(-809.91 -756.32)" fill="#5b2714"/>
    </g>
    <g id="그룹_292" data-name="그룹 292" transform="translate(160.661 432.71)">
      <path id="패스_1033" data-name="패스 1033" d="M1073.078,1340.568a.332.332,0,0,1-.221-.055.349.349,0,0,1-.055-.5,23.884,23.884,0,0,0,3.7-6.9.349.349,0,1,1,.662.22,26.364,26.364,0,0,1-3.861,7.116A.286.286,0,0,1,1073.078,1340.568Z" transform="translate(-1072.725 -1332.885)" fill="#5b2714"/>
    </g>
    <g id="그룹_293" data-name="그룹 293" transform="translate(134.208 346.328)">
      <path id="패스_1034" data-name="패스 1034" d="M873.606,643.033a.421.421,0,0,1-.276-.11.349.349,0,0,1,.055-.5,1.686,1.686,0,0,0,.552-1.82l-4.8-22.562a1.921,1.921,0,0,0-2.262-1.49l-11.529,2.427a1.9,1.9,0,0,0-1.434,2.262l2.814,13.295a.362.362,0,0,1-.276.441c-.166.055-.386-.055-.386-.221l-2.869-13.35a2.662,2.662,0,0,1,1.986-3.089l11.529-2.427a2.4,2.4,0,0,1,1.931.386,2.5,2.5,0,0,1,1.1,1.655l4.8,22.562a2.445,2.445,0,0,1-.828,2.482C873.771,643.033,873.716,643.033,873.606,643.033Z" transform="translate(-853.145 -615.828)" fill="#5b2714"/>
    </g>
    <g id="그룹_294" data-name="그룹 294" transform="translate(146.657 367.782)">
      <path id="패스_1035" data-name="패스 1035" d="M957.154,796.191a.309.309,0,0,1-.331-.276l-.331-1.545a.368.368,0,0,1,.717-.165l.331,1.544a.362.362,0,0,1-.276.441Z" transform="translate(-956.478 -793.916)" fill="#5b2714"/>
    </g>
    <g id="그룹_296" data-name="그룹 296" transform="translate(145.498 367.837)">
      <path id="패스_1037" data-name="패스 1037" d="M947.538,796.539a.309.309,0,0,1-.331-.276l-.331-1.434a.368.368,0,1,1,.717-.166l.331,1.434a.362.362,0,0,1-.276.441Z" transform="translate(-946.862 -794.373)" fill="#5b2714"/>
    </g>
    <g id="그룹_297" data-name="그룹 297" transform="translate(146.021 350.776)">
      <path id="패스_1038" data-name="패스 1038" d="M956.936,656.556a1.285,1.285,0,0,0-1.489-1.048,1.313,1.313,0,0,0-.938,1.6A1.285,1.285,0,0,0,956,658.156,1.313,1.313,0,0,0,956.936,656.556Z" transform="translate(-954.08 -655.147)" fill="#ffd35a"/>
      <path id="패스_1039" data-name="패스 1039" d="M952.841,656.145a1.69,1.69,0,0,1-1.6-1.379,1.71,1.71,0,0,1,.221-1.269,1.436,1.436,0,0,1,.993-.717,1.662,1.662,0,0,1,1.931,1.324h0a1.711,1.711,0,0,1-.22,1.269,1.437,1.437,0,0,1-.993.717C953.062,656.09,952.952,656.145,952.841,656.145Zm-.055-2.7h-.165a.8.8,0,0,0-.552.386,1.213,1.213,0,0,0-.11.772.934.934,0,0,0,1.1.772.8.8,0,0,0,.552-.386,1.211,1.211,0,0,0,.11-.772h0A1,1,0,0,0,952.786,653.442Z" transform="translate(-951.198 -652.751)" fill="#5b2714"/>
    </g>
    <g id="그룹_298" data-name="그룹 298" transform="translate(147.289 356.333)">
      <path id="패스_1040" data-name="패스 1040" d="M967.01,702.348a1.285,1.285,0,0,0-1.489-1.048,1.313,1.313,0,0,0-.938,1.6,1.285,1.285,0,0,0,1.489,1.048A1.34,1.34,0,0,0,967.01,702.348Z" transform="translate(-964.209 -700.981)" fill="#ffd35a"/>
      <path id="패스_1041" data-name="패스 1041" d="M963.373,702.237a1.666,1.666,0,0,1-.883-.276,2,2,0,0,1-.717-1.048,1.71,1.71,0,0,1,.221-1.269,1.519,1.519,0,0,1,2.151-.5,1.781,1.781,0,0,1,.772,1.1,1.852,1.852,0,0,1-.221,1.324,1.414,1.414,0,0,1-.993.662C963.594,702.182,963.484,702.237,963.373,702.237Zm-.055-2.7h-.165a.8.8,0,0,0-.552.386,1.212,1.212,0,0,0-.11.772,1.325,1.325,0,0,0,.386.662.763.763,0,0,0,.662.166.932.932,0,0,0,.552-.386.775.775,0,0,0,.11-.772h0a1.1,1.1,0,0,0-.441-.662A.88.88,0,0,0,963.318,699.534Z" transform="translate(-961.73 -698.884)" fill="#5b2714"/>
    </g>
    <g id="그룹_299" data-name="그룹 299" transform="translate(148.377 361.864)">
      <path id="패스_1042" data-name="패스 1042" d="M973.576,747.415a.2.2,0,0,1-.166-.055.305.305,0,0,1-.166-.441.921.921,0,0,0,.055-.662.934.934,0,0,0-1.1-.772.965.965,0,0,0-.717.993.473.473,0,0,1-.331.386.413.413,0,0,1-.386-.331,1.626,1.626,0,0,1,1.269-1.71,1.663,1.663,0,0,1,1.931,1.324,1.863,1.863,0,0,1-.11,1.1C973.852,747.36,973.686,747.415,973.576,747.415Z" transform="translate(-970.758 -744.793)" fill="#5b2714"/>
    </g>
    <g id="그룹_300" data-name="그룹 300" transform="translate(149.656 367.257)">
      <path id="패스_1043" data-name="패스 1043" d="M986.7,793.016a1.285,1.285,0,0,0-1.489-1.048,1.313,1.313,0,0,0-.938,1.6,1.285,1.285,0,0,0,1.489,1.048A1.313,1.313,0,0,0,986.7,793.016Z" transform="translate(-983.893 -791.649)" fill="#ffd35a"/>
      <path id="패스_1044" data-name="패스 1044" d="M983.025,792.912a1.668,1.668,0,0,1-.883-.276,2,2,0,0,1-.717-1.048,1.6,1.6,0,0,1,1.214-1.986,1.4,1.4,0,0,1,1.214.276,2,2,0,0,1,.717,1.048,1.71,1.71,0,0,1-.221,1.269,1.436,1.436,0,0,1-.993.717Zm-.11-2.7h-.165a.934.934,0,0,0-.662,1.158,1.324,1.324,0,0,0,.386.662.763.763,0,0,0,.662.165.8.8,0,0,0,.552-.386,1.213,1.213,0,0,0,.11-.772h0a1.325,1.325,0,0,0-.386-.662A.77.77,0,0,0,982.915,790.209Z" transform="translate(-981.376 -789.56)" fill="#5b2714"/>
    </g>
    <g id="그룹_301" data-name="그룹 301" transform="translate(137.36 352.638)">
      <path id="패스_1045" data-name="패스 1045" d="M885.042,672.124a1.285,1.285,0,0,0-1.49-1.048,1.313,1.313,0,0,0-.938,1.6,1.285,1.285,0,0,0,1.49,1.048A1.389,1.389,0,0,0,885.042,672.124Z" transform="translate(-882.186 -670.703)" fill="#ffd35a"/>
      <path id="패스_1046" data-name="패스 1046" d="M880.948,671.563a1.667,1.667,0,0,1-.883-.276,2,2,0,0,1-.717-1.048,1.711,1.711,0,0,1,.221-1.269,1.436,1.436,0,0,1,.993-.717,1.4,1.4,0,0,1,1.214.276,2,2,0,0,1,.717,1.048,1.711,1.711,0,0,1-.221,1.269,1.436,1.436,0,0,1-.993.717Zm-.055-2.648h-.166a.8.8,0,0,0-.552.386,1.215,1.215,0,0,0-.11.772,1.324,1.324,0,0,0,.386.662.763.763,0,0,0,.662.166.8.8,0,0,0,.552-.386,1.212,1.212,0,0,0,.11-.772h0a1.323,1.323,0,0,0-.386-.662A.888.888,0,0,0,880.893,668.915Z" transform="translate(-879.305 -668.211)" fill="#5b2714"/>
    </g>
    <g id="그룹_302" data-name="그룹 302" transform="translate(138.623 358.113)">
      <path id="패스_1047" data-name="패스 1047" d="M895.117,717.916a1.285,1.285,0,0,0-1.489-1.048,1.313,1.313,0,0,0-.938,1.6,1.285,1.285,0,0,0,1.489,1.048A1.34,1.34,0,0,0,895.117,717.916Z" transform="translate(-892.31 -716.452)" fill="#ffd35a"/>
      <path id="패스_1048" data-name="패스 1048" d="M891.441,717.048a1.644,1.644,0,0,1-1.6-1.379,1.6,1.6,0,0,1,1.214-1.986,1.663,1.663,0,0,1,1.931,1.324h0a1.6,1.6,0,0,1-1.214,1.986A.822.822,0,0,1,891.441,717.048Zm-.11-2.7h-.165a.995.995,0,1,0,1.1.772A1,1,0,0,0,891.331,714.345Z" transform="translate(-889.793 -713.654)" fill="#5b2714"/>
    </g>
    <g id="그룹_303" data-name="그룹 303" transform="translate(141.03 369.022)">
      <path id="패스_1049" data-name="패스 1049" d="M910.113,805.8H910a.375.375,0,0,1-.221-.441,1.665,1.665,0,0,1,1.158-1.1,1.363,1.363,0,0,1,1.214.276.353.353,0,1,1-.441.552.763.763,0,0,0-.662-.166.91.91,0,0,0-.662.607C910.389,805.745,910.279,805.8,910.113,805.8Z" transform="translate(-909.768 -804.213)" fill="#5b2714"/>
    </g>
    <g id="그룹_304" data-name="그룹 304" transform="translate(147.263 420.354)">
      <path id="패스_1050" data-name="패스 1050" d="M973.056,1251.233h-.607a.36.36,0,0,1,.055-.717c1.269.11,2.041-.166,2.427-.717,1.159-1.876-1.82-7.006-3.806-10.426l-.552-.993a14.976,14.976,0,0,0-8.826-7.392.349.349,0,1,1,.221-.662,15.408,15.408,0,0,1,9.213,7.668l.552.993c2.317,3.972,5.186,8.882,3.751,11.143A2.591,2.591,0,0,1,973.056,1251.233Z" transform="translate(-961.513 -1230.312)" fill="#5b2714"/>
    </g>
    <g id="그룹_305" data-name="그룹 305" transform="translate(141.596 335.138)">
      <path id="패스_1051" data-name="패스 1051" d="M915.845,528.184a22.4,22.4,0,0,1-1.379-4.854c0-.165.11-.386.276-.386s.386.11.386.276a21.228,21.228,0,0,0,1.324,4.634Z" transform="translate(-914.466 -522.943)" fill="#5b2714"/>
    </g>
    <g id="그룹_306" data-name="그룹 306" transform="translate(149.319 330.876)">
      <path id="패스_1052" data-name="패스 1052" d="M978.905,496.847h0c-.221,0-.331-.166-.331-.386a32.065,32.065,0,0,1,1.655-8.661.349.349,0,1,1,.662.221,32.8,32.8,0,0,0-1.6,8.44C979.236,496.736,979.07,496.847,978.905,496.847Z" transform="translate(-978.574 -487.565)" fill="#5b2714"/>
    </g>
    <g id="그룹_307" data-name="그룹 307" transform="translate(154.171 336.294)">
      <path id="패스_1053" data-name="패스 1053" d="M1019.186,539.163a.2.2,0,0,1-.166-.055.359.359,0,0,1-.11-.5,22.352,22.352,0,0,1,5.847-6.013.36.36,0,1,1,.386.607,22.055,22.055,0,0,0-5.627,5.848A.785.785,0,0,1,1019.186,539.163Z" transform="translate(-1018.853 -532.541)" fill="#5b2714"/>
    </g>
    <g id="그룹_308" data-name="그룹 308" transform="translate(156.378 344.461)">
      <path id="패스_1054" data-name="패스 1054" d="M1037.5,603.2a.3.3,0,0,1-.276-.166.36.36,0,0,1,.11-.5,15.66,15.66,0,0,1,6.9-2.207.36.36,0,1,1,.055.717,14.65,14.65,0,0,0-6.565,2.1C1037.614,603.145,1037.559,603.2,1037.5,603.2Z" transform="translate(-1037.171 -600.332)" fill="#5b2714"/>
    </g>
  </g>
</svg>
