<?xml version="1.0" encoding="utf-8"?>
<!-- Generator: Adobe Illustrator 25.0.1, SVG Export Plug-In . SVG Version: 6.00 Build 0)  -->
<svg version="1.1" id="레이어_1" xmlns="http://www.w3.org/2000/svg" xmlns:xlink="http://www.w3.org/1999/xlink" x="0px"
	 y="0px" viewBox="0 0 60.8 60.8" style="enable-background:new 0 0 60.8 60.8;" xml:space="preserve">
<style type="text/css">
	.st0{fill:#F7C667;}
	.st1{fill:#FFFFFF;}
</style>
<g>
	<circle class="st0" cx="30.4" cy="30.4" r="28.7"/>
	<g id="그룹_16030" transform="translate(3.992 4.691)">
		<path id="사각형_6" class="st1" d="M26.1,15.6L26.1,15.6c1.5,0,2.7,1.2,2.7,2.7V32c0,1.5-1.2,2.7-2.7,2.7l0,0
			c-1.5,0-2.7-1.2-2.7-2.7V18.3C23.3,16.9,24.6,15.6,26.1,15.6z"/>
		<path id="사각형_7" class="st1" d="M35.8,25.2L35.8,25.2c0,1.5-1.2,2.7-2.7,2.7H19.4c-1.5,0-2.7-1.2-2.7-2.7l0,0
			c0-1.5,1.2-2.7,2.7-2.7h13.7C34.6,22.5,35.8,23.7,35.8,25.2z"/>
	</g>
</g>
</svg>
