<svg xmlns="http://www.w3.org/2000/svg" width="19.784" height="22.148" viewBox="0 0 19.784 22.148">
  <g id="그룹_16129" data-name="그룹 16129" transform="translate(-50.403 -140.722)">
    <g id="그룹_16128" data-name="그룹 16128" transform="translate(50.403 140.722)">
      <g id="그룹_16127" data-name="그룹 16127">
        <g id="그룹_16121" data-name="그룹 16121" transform="translate(0 1.622)">
          <g id="그룹_16117" data-name="그룹 16117" transform="translate(3.538 14.328)">
            <g id="그룹_16116" data-name="그룹 16116">
              <rect id="사각형_6180" data-name="사각형 6180" width="13.161" height="1.018" fill="#a2a2a2"/>
              <rect id="사각형_6181" data-name="사각형 6181" width="13.161" height="1.018" transform="translate(0 1.974)" fill="#a2a2a2"/>
            </g>
          </g>
          <g id="그룹_16118" data-name="그룹 16118" transform="translate(0 0.794)">
            <path id="패스_1650" data-name="패스 1650" d="M69.231,144.674a2.707,2.707,0,0,0-1.438-.633v1.671a1.074,1.074,0,0,1,.682.652,1.015,1.015,0,0,1,.068.375v14.315a1.079,1.079,0,0,1-1.078,1.078H53.123a1.077,1.077,0,0,1-1.078-1.078V146.739a1.015,1.015,0,0,1,.068-.375,1.073,1.073,0,0,1,.671-.649v-1.672a2.716,2.716,0,0,0-2.381,2.7v14.315a2.722,2.722,0,0,0,2.72,2.72H67.466a2.722,2.722,0,0,0,2.72-2.72V146.739A2.716,2.716,0,0,0,69.231,144.674Z" transform="translate(-50.403 -144.041)" fill="#a2a2a2"/>
          </g>
          <g id="그룹_16120" data-name="그룹 16120">
            <g id="그룹_16119" data-name="그룹 16119">
              <path id="패스_1651" data-name="패스 1651" d="M69.333,142.95h-1.9v.84a1.351,1.351,0,0,1-1.348,1.349H63.193a1.35,1.35,0,0,1-1.349-1.349v-.84h-3.1v.84a1.35,1.35,0,0,1-1.349,1.349H54.506a1.351,1.351,0,0,1-1.348-1.349v-.84h-1.9a.857.857,0,0,0-.856.857v3.68a.345.345,0,0,0,.348.345h19.09a.345.345,0,0,0,.346-.345v-3.68A.855.855,0,0,0,69.333,142.95Z" transform="translate(-50.403 -142.95)" fill="#a2a2a2"/>
            </g>
          </g>
        </g>
        <g id="그룹_16125" data-name="그룹 16125" transform="translate(3.309)">
          <g id="그룹_16122" data-name="그룹 16122">
            <path id="패스_1652" data-name="패스 1652" d="M55.83,143.979h0a.88.88,0,0,1-.881-.88v-1.5a.88.88,0,0,1,.881-.88h0a.88.88,0,0,1,.88.88v1.5A.88.88,0,0,1,55.83,143.979Z" transform="translate(-54.949 -140.722)" fill="#a2a2a2"/>
            <path id="패스_1653" data-name="패스 1653" d="M59.563,143.979h0a.88.88,0,0,1-.88-.88v-1.5a.88.88,0,0,1,.88-.88h0a.88.88,0,0,1,.881.88v1.5A.88.88,0,0,1,59.563,143.979Z" transform="translate(-55.965 -140.722)" fill="#a2a2a2"/>
          </g>
          <g id="그룹_16124" data-name="그룹 16124" transform="translate(8.686)">
            <g id="그룹_16123" data-name="그룹 16123">
              <path id="패스_1654" data-name="패스 1654" d="M67.762,143.979h0a.88.88,0,0,1-.881-.88v-1.5a.88.88,0,0,1,.881-.88h0a.88.88,0,0,1,.88.88v1.5A.88.88,0,0,1,67.762,143.979Z" transform="translate(-66.881 -140.722)" fill="#a2a2a2"/>
              <path id="패스_1655" data-name="패스 1655" d="M71.5,143.979h0a.88.88,0,0,1-.88-.88v-1.5a.88.88,0,0,1,.88-.88h0a.88.88,0,0,1,.881.88v1.5A.88.88,0,0,1,71.5,143.979Z" transform="translate(-67.897 -140.722)" fill="#a2a2a2"/>
            </g>
          </g>
        </g>
        <g id="그룹_16126" data-name="그룹 16126" transform="translate(5.416 8.521)">
          <path id="패스_1656" data-name="패스 1656" d="M60.3,158.378h-1.58v-4.752h-.881v-1.2H60.3Z" transform="translate(-57.843 -152.428)" fill="#a2a2a2"/>
          <path id="패스_1657" data-name="패스 1657" d="M67.262,152.428H65.63l-3,3.837v1.307h3.059v.806h1.571v-.806H68.1v-1.2h-.835Zm-1.571,3.946H63.931l1.761-2.233Z" transform="translate(-59.146 -152.428)" fill="#a2a2a2"/>
        </g>
      </g>
    </g>
  </g>
</svg>
