<svg id="그룹_492" data-name="그룹 492" xmlns="http://www.w3.org/2000/svg" width="38" height="38" viewBox="0 0 38 38">
  <circle id="Dot_2" data-name="Dot 2" cx="19" cy="19" r="19" fill="#a0cef5"/>
  <g id="Checkmark" transform="translate(9.197 11.084)">
    <path id="패스_71" data-name="패스 71" d="M.63,7.191A1.693,1.693,0,0,1,3.068,7.4l3.693,3.762L17.7.5a1.687,1.687,0,0,1,2.439.139A1.683,1.683,0,0,1,20,3.08L7.875,14.924a1.424,1.424,0,0,1-.627.348h-.07a.256.256,0,0,1-.209.07H6.343c-.07,0-.209-.07-.279-.07h0a3.272,3.272,0,0,1-.627-.418L.49,9.7A1.7,1.7,0,0,1,.63,7.191Z" transform="translate(-0.008 -0.048)" fill="#fff"/>
  </g>
</svg>
